<svg width="21" height="22" viewBox="0 0 21 22" fill="none" xmlns="http://www.w3.org/2000/svg">
<path d="M15.2887 0.00457747L12.6451 0C9.67516 0 7.75582 2.12509 7.75582 5.41423V7.91055H5.09781C4.86812 7.91055 4.68213 8.1115 4.68213 8.35937V11.9763C4.68213 12.2241 4.86834 12.4249 5.09781 12.4249H7.75582V21.5514C7.75582 21.7993 7.94182 22 8.1715 22H11.6395C11.8691 22 12.0551 21.799 12.0551 21.5514V12.4249H15.163C15.3927 12.4249 15.5787 12.2241 15.5787 11.9763L15.5799 8.35937C15.5799 8.24036 15.536 8.12638 15.4582 8.04215C15.3804 7.95793 15.2743 7.91055 15.164 7.91055H12.0551V5.79439C12.0551 4.77727 12.2797 4.26094 13.5075 4.26094L15.2883 4.26025C15.5178 4.26025 15.7038 4.0593 15.7038 3.81166V0.453169C15.7038 0.205757 15.518 0.00503522 15.2887 0.00457747Z" fill="#292929"/>
</svg>
