<svg width="411" height="188" viewBox="0 0 411 188" fill="none" xmlns="http://www.w3.org/2000/svg">
<path d="M49.15 2.99999H50.15V1.99999H49.15V2.99999ZM40.35 2.99999V1.99999H39.35V2.99999H40.35ZM36.06 68.45L36.7928 69.1305L36.8007 69.1218L36.06 68.45ZM15.16 70.32L14.5745 71.1307L14.5872 71.1398L14.6001 71.1486L15.16 70.32ZM7.68 62.07L8.51727 61.5232L7.89337 60.5679L7.02811 61.3117L7.68 62.07ZM1.41 67.46L0.758114 66.7017L0.113356 67.256L0.556718 67.9815L1.41 67.46ZM10.76 77.25L10.2016 78.0796L10.76 77.25ZM34.74 79.45L35.0911 80.3863L34.74 79.45ZM42.33 74.5L43.049 75.195L43.0547 75.1891L43.0603 75.1832L42.33 74.5ZM47.28 66.14L46.3419 65.7933L46.3378 65.805L47.28 66.14ZM50.15 54.48V2.99999H48.15V54.48H50.15ZM49.15 1.99999H40.35V3.99999H49.15V1.99999ZM39.35 2.99999V54.59H41.35V2.99999H39.35ZM39.35 54.59C39.35 60.5342 37.9528 64.8745 35.3193 67.7782L36.8007 69.1218C39.8872 65.7188 41.35 60.8191 41.35 54.59H39.35ZM35.3272 67.7695C32.6626 70.6391 29.3379 72.07 25.28 72.07V74.07C29.8755 74.07 33.7374 72.4209 36.7928 69.1304L35.3272 67.7695ZM25.28 72.07C21.3996 72.07 18.2331 71.1895 15.7199 69.4914L14.6001 71.1486C17.5136 73.1171 21.0937 74.07 25.28 74.07V72.07ZM15.7455 69.5093C13.2309 67.6932 10.817 65.0447 8.51727 61.5232L6.84273 62.6168C9.23629 66.2819 11.8091 69.1334 14.5745 71.1307L15.7455 69.5093ZM7.02811 61.3117L0.758114 66.7017L2.06189 68.2183L8.33189 62.8283L7.02811 61.3117ZM0.556718 67.9815C3.05097 72.063 6.26779 75.4318 10.2016 78.0796L11.3184 76.4204C7.62554 73.9349 4.60903 70.777 2.26328 66.9386L0.556718 67.9815ZM10.2016 78.0796C14.2183 80.7831 19.2295 82.1 25.17 82.1V80.1C19.5238 80.1 14.9284 78.8502 11.3184 76.4204L10.2016 78.0796ZM25.17 82.1C28.7246 82.1 32.0348 81.5324 35.0911 80.3863L34.3889 78.5137C31.5785 79.5676 28.5088 80.1 25.17 80.1V82.1ZM35.0911 80.3863C38.1601 79.2355 40.8166 77.5044 43.049 75.195L41.611 73.805C39.59 75.8956 37.1866 77.4645 34.3889 78.5137L35.0911 80.3863ZM43.0603 75.1832C45.2918 72.7977 47.0086 69.8882 48.2222 66.475L46.3378 65.805C45.2047 68.9918 43.6215 71.6556 41.5997 73.8168L43.0603 75.1832ZM48.218 66.4866C49.5137 62.9807 50.15 58.9727 50.15 54.48H48.15C48.15 58.7873 47.5396 62.5527 46.342 65.7934L48.218 66.4866ZM103.528 2.45L104.439 2.03775L104.173 1.45H103.528V2.45ZM95.3878 2.45V1.45H94.7427L94.4767 2.03775L95.3878 2.45ZM60.2978 80L59.3867 79.5878L58.7477 81H60.2978V80ZM69.2078 80V81H69.8552L70.1202 80.4093L69.2078 80ZM78.3378 59.65V58.65H77.6904L77.4254 59.2407L78.3378 59.65ZM120.248 59.65L121.162 59.2448L120.898 58.65H120.248V59.65ZM129.268 80L128.354 80.4052L128.617 81H129.268V80ZM138.618 80V81H140.168L139.529 79.5878L138.618 80ZM116.838 51.84V52.84H118.378L117.751 51.4331L116.838 51.84ZM81.7478 51.84L80.8353 51.431L80.2038 52.84H81.7478V51.84ZM99.3478 12.57L100.261 12.1631L99.3507 10.1185L98.4353 12.161L99.3478 12.57ZM103.528 1.45H95.3878V3.45H103.528V1.45ZM94.4767 2.03775L59.3867 79.5878L61.2089 80.4122L96.2989 2.86224L94.4767 2.03775ZM60.2978 81H69.2078V79H60.2978V81ZM70.1202 80.4093L79.2502 60.0593L77.4254 59.2407L68.2954 79.5907L70.1202 80.4093ZM78.3378 60.65H120.248V58.65H78.3378V60.65ZM119.334 60.0552L128.354 80.4052L130.182 79.5948L121.162 59.2448L119.334 60.0552ZM129.268 81H138.618V79H129.268V81ZM139.529 79.5878L104.439 2.03775L102.617 2.86224L137.707 80.4122L139.529 79.5878ZM116.838 50.84H81.7478V52.84H116.838V50.84ZM82.6604 52.249L100.26 12.979L98.4353 12.161L80.8353 51.431L82.6604 52.249ZM98.4343 12.9768L115.924 52.2468L117.751 51.4331L100.261 12.1631L98.4343 12.9768ZM215.29 67.79L216.01 68.4841L216.699 67.7704L215.991 67.0761L215.29 67.79ZM209.57 62.18L210.271 61.4661L209.578 60.7866L208.878 61.4586L209.57 62.18ZM198.35 70.43L198.798 71.3244L198.804 71.321L198.811 71.3175L198.35 70.43ZM172.83 70.87L172.405 71.7752L172.417 71.7804L172.428 71.7853L172.83 70.87ZM163.37 64.05L162.636 64.7283L162.645 64.7383L163.37 64.05ZM157.1 53.93L156.165 54.2831L156.168 54.2907L156.171 54.2984L157.1 53.93ZM157.1 28.96L156.171 28.5916L156.167 28.601L157.1 28.96ZM163.37 18.84L162.645 18.1517L162.636 18.1617L163.37 18.84ZM172.83 12.13L172.428 11.2147L172.421 11.2177L172.83 12.13ZM198.24 12.68L197.772 13.5638L197.78 13.5675L198.24 12.68ZM208.91 20.27L208.228 21.0011L208.96 21.6842L209.642 20.9514L208.91 20.27ZM214.85 13.89L215.582 14.5714L216.253 13.8512L215.544 13.1692L214.85 13.89ZM208.91 8.94L208.31 9.74L208.32 9.74697L208.329 9.75373L208.91 8.94ZM202.2 5.08999L201.787 6.00036L201.798 6.00562L201.81 6.01058L202.2 5.08999ZM194.28 2.55999L194.074 3.53856L194.079 3.5396L194.28 2.55999ZM169.2 4.87L169.596 5.78849L169.608 5.78323L169.2 4.87ZM156.88 13.45L157.602 14.1423L157.609 14.1349L156.88 13.45ZM148.74 26.1L147.815 25.7213L147.81 25.7335L148.74 26.1ZM148.74 57.23L147.81 57.5966L147.815 57.6086L148.74 57.23ZM156.88 69.88L156.159 70.5723L156.166 70.5796L156.88 69.88ZM169.09 78.24L168.69 79.1562L169.09 78.24ZM194.06 80.33L194.285 81.3044L194.06 80.33ZM202.09 77.58L202.516 78.4848L202.09 77.58ZM209.02 73.4L209.625 74.1967L209.629 74.1936L209.02 73.4ZM215.991 67.0761L210.271 61.4661L208.87 62.8939L214.59 68.5039L215.991 67.0761ZM208.878 61.4586C205.268 64.9242 201.604 67.6137 197.89 69.5425L198.811 71.3175C202.723 69.2863 206.54 66.4758 210.263 62.9014L208.878 61.4586ZM197.903 69.5356C194.258 71.3582 189.871 72.29 184.71 72.29V74.29C190.109 74.29 194.816 73.3151 198.798 71.3244L197.903 69.5356ZM184.71 72.29C180.587 72.29 176.765 71.5088 173.233 69.9547L172.428 71.7853C176.229 73.4579 180.327 74.29 184.71 74.29V72.29ZM173.255 69.9648C169.774 68.3307 166.723 66.1307 164.096 63.3617L162.645 64.7383C165.445 67.6893 168.7 70.036 172.405 71.7752L173.255 69.9648ZM164.105 63.3717C161.555 60.6087 159.528 57.3424 158.03 53.5616L156.171 54.2984C157.753 58.2909 159.906 61.7713 162.636 64.7283L164.105 63.3717ZM158.036 53.5769C156.615 49.8115 155.9 45.752 155.9 41.39H153.9C153.9 45.9746 154.652 50.2752 156.165 54.2831L158.036 53.5769ZM155.9 41.39C155.9 37.0277 156.615 33.0074 158.034 29.319L156.167 28.601C154.652 32.5393 153.9 36.8056 153.9 41.39H155.9ZM158.03 29.3284C159.528 25.5476 161.555 22.2813 164.105 19.5183L162.636 18.1617C159.906 21.1187 157.753 24.5991 156.171 28.5916L158.03 29.3284ZM164.096 19.5283C166.72 16.7627 169.766 14.6022 173.24 13.0423L172.421 11.2177C168.708 12.8845 165.448 15.1973 162.645 18.1517L164.096 19.5283ZM173.233 13.0453C176.765 11.4912 180.587 10.71 184.71 10.71V8.70999C180.327 8.70999 176.229 9.5421 172.428 11.2147L173.233 13.0453ZM184.71 10.71C189.867 10.71 194.208 11.6767 197.773 13.5638L198.708 11.7962C194.793 9.72327 190.114 8.70999 184.71 8.70999V10.71ZM197.78 13.5675C201.508 15.5036 204.991 17.9799 208.228 21.0011L209.593 19.5389C206.23 16.4001 202.599 13.8164 198.701 11.7925L197.78 13.5675ZM209.642 20.9514L215.582 14.5714L214.118 13.2086L208.178 19.5886L209.642 20.9514ZM215.544 13.1692C213.604 11.3038 211.586 9.62246 209.492 8.12626L208.329 9.75373C210.341 11.1909 212.284 12.8095 214.157 14.6108L215.544 13.1692ZM209.51 8.14C207.391 6.55032 205.084 5.22689 202.591 4.16941L201.81 6.01058C204.157 7.00643 206.323 8.24967 208.31 9.74L209.51 8.14ZM202.614 4.17963C200.12 3.0458 197.408 2.18064 194.481 1.58039L194.079 3.5396C196.873 4.11268 199.441 4.93419 201.787 6.00036L202.614 4.17963ZM194.486 1.58144C191.618 0.977643 188.394 0.679998 184.82 0.679998V2.68C188.287 2.68 191.369 2.96902 194.074 3.53854L194.486 1.58144ZM184.82 0.679998C179.045 0.679998 173.698 1.76834 168.793 3.95677L169.608 5.78323C174.236 3.71832 179.302 2.68 184.82 2.68V0.679998ZM168.805 3.95158C163.916 6.05738 159.695 8.99544 156.152 12.7651L157.609 14.1349C160.959 10.5712 164.951 7.78928 169.596 5.78841L168.805 3.95158ZM156.159 12.7578C152.621 16.4464 149.84 20.7709 147.815 25.7214L149.666 26.4786C151.601 21.7491 154.247 17.6403 157.602 14.1422L156.159 12.7578ZM147.81 25.7335C145.855 30.6968 144.88 35.9918 144.88 41.61H146.88C146.88 36.2282 147.813 31.1832 149.671 26.4665L147.81 25.7335ZM144.88 41.61C144.88 47.2998 145.854 52.6317 147.81 57.5965L149.671 56.8635C147.813 52.1483 146.88 47.0669 146.88 41.61H144.88ZM147.815 57.6086C149.84 62.5591 152.621 66.8836 156.159 70.5722L157.602 69.1878C154.247 65.6897 151.601 61.5809 149.666 56.8514L147.815 57.6086ZM156.166 70.5796C159.706 74.1949 163.884 77.0535 168.69 79.1562L169.491 77.3238C164.911 75.3198 160.948 72.6051 157.595 69.1804L156.166 70.5796ZM168.69 79.1562C173.52 81.2695 178.791 82.32 184.49 82.32V80.32C179.043 80.32 174.047 79.3172 169.491 77.3238L168.69 79.1562ZM184.49 82.32C188.072 82.32 191.339 81.9844 194.285 81.3044L193.836 79.3556C191.062 79.9956 187.949 80.32 184.49 80.32V82.32ZM194.285 81.3044C197.21 80.6294 199.955 79.6903 202.516 78.4848L201.665 76.6752C199.24 77.8164 196.631 78.7106 193.836 79.3556L194.285 81.3044ZM202.516 78.4848C205.071 77.2827 207.441 75.8535 209.625 74.1967L208.416 72.6033C206.347 74.1731 204.097 75.5306 201.665 76.6752L202.516 78.4848ZM209.629 74.1936C211.87 72.4757 213.997 70.5723 216.01 68.4841L214.571 67.0959C212.624 69.1143 210.571 70.9509 208.412 72.6064L209.629 74.1936ZM75.55 174.55L76.2181 175.294L76.55 174.996V174.55H75.55ZM75.55 143.86H76.55V142.86H75.55V143.86ZM43.76 143.86V142.86H42.76V143.86H43.76ZM43.76 151.67H42.76V152.67H43.76V151.67ZM67.19 151.67H68.19V150.67H67.19V151.67ZM67.19 170.81L67.8173 171.589L68.19 171.289V170.81H67.19ZM57.4 176.31L57.7531 177.246L57.7607 177.243L57.7684 177.24L57.4 176.31ZM32.32 176.09L31.9239 177.008L32.32 176.09ZM22.75 169.38L22.0152 170.058L22.75 169.38ZM16.59 159.26L15.6467 159.592L15.6504 159.603L15.6544 159.613L16.59 159.26ZM16.7 134.18L17.6334 134.539L17.6356 134.533L16.7 134.18ZM22.75 124.06L23.4942 124.728L22.75 124.06ZM51.13 115.37L50.9339 116.351L50.94 116.352L51.13 115.37ZM57.29 117.24L56.8873 118.155L56.9089 118.165L56.931 118.173L57.29 117.24ZM62.57 119.99L62.0067 120.816L62.0198 120.825L62.0331 120.834L62.57 119.99ZM67.19 123.51L66.521 124.253L67.2857 124.941L67.9519 124.158L67.19 123.51ZM72.8 116.91L73.5619 117.558L74.211 116.794L73.4459 116.147L72.8 116.91ZM66.86 112.62L66.3053 113.452L66.3229 113.464L66.341 113.475L66.86 112.62ZM60.37 109.32L60.009 110.253L60.0189 110.256L60.37 109.32ZM52.89 107.34L52.7256 108.326L52.7299 108.327L52.89 107.34ZM28.25 109.98L28.6627 110.891L28.6691 110.888L28.25 109.98ZM8.23 131.43L7.29951 131.063L7.29484 131.076L8.23 131.43ZM8.12 162.12L7.18012 162.462L7.18484 162.474L8.12 162.12ZM15.93 174.77L15.2009 175.454L15.2083 175.462L15.93 174.77ZM28.25 183.24L27.8544 184.158L27.8595 184.161L28.25 183.24ZM62.24 182.91L62.6402 183.826L62.6461 183.824L62.24 182.91ZM76.55 174.55V143.86H74.55V174.55H76.55ZM75.55 142.86H43.76V144.86H75.55V142.86ZM42.76 143.86V151.67H44.76V143.86H42.76ZM43.76 152.67H67.19V150.67H43.76V152.67ZM66.19 151.67V170.81H68.19V151.67H66.19ZM66.5627 170.031C64.0167 172.082 60.8458 173.869 57.0316 175.38L57.7684 177.24C61.7276 175.671 65.0833 173.791 67.8173 171.589L66.5627 170.031ZM57.0469 175.374C53.2797 176.796 49.2566 177.51 44.97 177.51V179.51C49.4834 179.51 53.747 178.757 57.7531 177.246L57.0469 175.374ZM44.97 177.51C40.3923 177.51 36.3134 176.724 32.7161 175.172L31.9239 177.008C35.8066 178.683 40.161 179.51 44.97 179.51V177.51ZM32.7161 175.172C29.0984 173.611 26.0255 171.454 23.4848 168.702L22.0152 170.058C24.7545 173.026 28.0616 175.342 31.9239 177.008L32.7161 175.172ZM23.4848 168.702C20.9378 165.942 18.95 162.681 17.5256 158.907L15.6544 159.613C17.1634 163.612 19.2822 167.098 22.0152 170.058L23.4848 168.702ZM17.5333 158.928C16.1811 155.085 15.5 150.908 15.5 146.39H13.5C13.5 151.112 14.2123 155.515 15.6467 159.592L17.5333 158.928ZM15.5 146.39C15.5 142.179 16.2133 138.231 17.6333 134.539L15.7667 133.821C14.2534 137.756 13.5 141.948 13.5 146.39H15.5ZM17.6356 134.533C19.0621 130.753 21.0168 127.488 23.4942 124.728L22.0058 123.392C19.3499 126.352 17.2712 129.834 15.7644 133.827L17.6356 134.533ZM23.4942 124.728C25.9685 121.971 28.9388 119.777 32.4149 118.145L31.5651 116.335C27.8546 118.076 24.6649 120.429 22.0058 123.392L23.4942 124.728ZM32.4149 118.145C35.8659 116.525 39.6428 115.71 43.76 115.71V113.71C39.3705 113.71 35.3007 114.581 31.5651 116.335L32.4149 118.145ZM43.76 115.71C46.4207 115.71 48.8102 115.926 50.9339 116.351L51.3261 114.389C49.0498 113.934 46.526 113.71 43.76 113.71V115.71ZM50.94 116.352C53.1512 116.78 55.1317 117.383 56.8873 118.155L57.6927 116.325C55.7816 115.484 53.6554 114.84 51.32 114.388L50.94 116.352ZM56.931 118.173C58.769 118.88 60.46 119.762 62.0067 120.816L63.1333 119.164C61.4534 118.018 59.6244 117.066 57.649 116.307L56.931 118.173ZM62.0331 120.834C63.5983 121.83 65.0942 122.969 66.521 124.253L67.859 122.767C66.3524 121.411 64.7684 120.204 63.1069 119.146L62.0331 120.834ZM67.9519 124.158L73.5619 117.558L72.0381 116.262L66.4281 122.862L67.9519 124.158ZM73.4459 116.147C71.501 114.501 69.4787 113.04 67.379 111.765L66.341 113.475C68.348 114.693 70.2857 116.092 72.1541 117.673L73.4459 116.147ZM67.4147 111.788C65.3678 110.423 63.1356 109.289 60.7211 108.384L60.0189 110.256C62.2977 111.111 64.3922 112.177 66.3053 113.452L67.4147 111.788ZM60.731 108.387C58.3852 107.479 55.8235 106.803 53.0501 106.353L52.7299 108.327C55.3831 108.757 57.8082 109.401 60.009 110.253L60.731 108.387ZM53.0544 106.354C50.3504 105.903 47.3609 105.68 44.09 105.68V107.68C47.2724 107.68 50.1496 107.897 52.7256 108.326L53.0544 106.354ZM44.09 105.68C38.1671 105.68 32.7421 106.805 27.8309 109.072L28.6691 110.888C33.2913 108.755 38.4263 107.68 44.09 107.68V105.68ZM27.8373 109.069C23.0259 111.249 18.8815 114.224 15.4141 117.993L16.8859 119.347C20.1652 115.783 24.0875 112.964 28.6627 110.891L27.8373 109.069ZM15.4141 117.993C11.9537 121.754 9.24939 126.114 7.29959 131.063L9.16041 131.797C11.0239 127.066 13.5996 122.919 16.8859 119.347L15.4141 117.993ZM7.29484 131.076C5.41776 136.031 4.48 141.211 4.48 146.61H6.48C6.48 141.449 7.37557 136.509 9.16516 131.784L7.29484 131.076ZM4.48 146.61C4.48 152.219 5.37774 157.505 7.18021 162.462L9.05979 161.778C7.34226 157.055 6.48 152.001 6.48 146.61H4.48ZM7.18484 162.474C9.06221 167.43 11.7335 171.761 15.2009 175.454L16.6591 174.086C13.3799 170.592 10.8445 166.49 9.05516 161.766L7.18484 162.474ZM15.2083 175.462C18.7514 179.156 22.9703 182.055 27.8544 184.158L28.6456 182.322C23.9964 180.319 20.0019 177.571 16.6517 174.078L15.2083 175.462ZM27.8595 184.161C32.8409 186.274 38.4401 187.32 44.64 187.32V185.32C38.6666 185.32 33.3391 184.313 28.6406 182.319L27.8595 184.161ZM44.64 187.32C51.284 187.32 57.2899 186.162 62.6401 183.826L61.8399 181.994C56.7768 184.204 51.0493 185.32 44.64 185.32V187.32ZM62.6461 183.824C68.0036 181.443 72.5333 178.603 76.2181 175.294L74.8819 173.806C71.38 176.95 67.0364 179.684 61.8339 181.996L62.6461 183.824ZM158.07 108H159.07V107H158.07V108ZM149.38 108V107H148.38V108H149.38ZM143.11 171.8L143.823 172.501L143.11 171.8ZM108.79 171.47L108.053 172.146L108.059 172.153L108.79 171.47ZM102.63 108H103.63V107H102.63V108ZM93.9398 108V107H92.9398V108H93.9398ZM96.2498 167.18L95.3114 167.526L96.2498 167.18ZM102.74 177.74L102.024 178.438L102.033 178.447L102.042 178.456L102.74 177.74ZM112.86 184.12L112.507 185.056L112.517 185.06L112.528 185.063L112.86 184.12ZM139.04 184.12L139.377 185.061L139.387 185.058L139.04 184.12ZM149.16 177.63L148.453 176.923L148.444 176.932L149.16 177.63ZM155.76 166.96L156.7 167.3L155.76 166.96ZM158.07 107H149.38V109H158.07V107ZM148.38 108V152.77H150.38V108H148.38ZM148.38 152.77C148.38 161.051 146.328 167.099 142.397 171.099L143.823 172.501C148.251 167.995 150.38 161.356 150.38 152.77H148.38ZM142.397 171.099C138.44 175.125 133.07 177.18 126.17 177.18V179.18C133.496 179.18 139.419 176.982 143.823 172.501L142.397 171.099ZM126.17 177.18C118.977 177.18 113.472 175.017 109.52 170.787L108.059 172.153C112.467 176.87 118.549 179.18 126.17 179.18V177.18ZM109.526 170.794C105.644 166.565 103.63 160.425 103.63 152.22H101.63C101.63 160.735 103.722 167.429 108.053 172.146L109.526 170.794ZM103.63 152.22V108H101.63V152.22H103.63ZM102.63 107H93.9398V109H102.63V107ZM92.9398 108V152.77H94.9398V108H92.9398ZM92.9398 152.77C92.9398 158.29 93.7228 163.214 95.3114 167.526L97.1881 166.834C95.6967 162.786 94.9398 158.104 94.9398 152.77H92.9398ZM95.3114 167.526C96.8943 171.822 99.1282 175.466 102.024 178.438L103.456 177.042C100.778 174.294 98.6852 170.898 97.1881 166.834L95.3114 167.526ZM102.042 178.456C105.004 181.343 108.497 183.542 112.507 185.056L113.213 183.184C109.45 181.764 106.195 179.71 103.438 177.024L102.042 178.456ZM112.528 185.063C116.608 186.499 121.085 187.21 125.95 187.21V185.21C121.281 185.21 117.032 184.528 113.192 183.177L112.528 185.063ZM125.95 187.21C130.885 187.21 135.365 186.5 139.377 185.061L138.702 183.179C134.941 184.527 130.694 185.21 125.95 185.21V187.21ZM139.387 185.058C143.478 183.543 146.98 181.3 149.876 178.328L148.444 176.932C145.766 179.68 142.521 181.764 138.692 183.182L139.387 185.058ZM149.867 178.337C152.842 175.362 155.116 171.675 156.7 167.3L154.82 166.62C153.323 170.751 151.197 174.178 148.453 176.923L149.867 178.337ZM156.7 167.3C158.288 162.915 159.07 157.845 159.07 152.11H157.07C157.07 157.668 156.312 162.499 154.82 166.62L156.7 167.3ZM159.07 152.11V108H157.07V152.11H159.07ZM212.454 107.45L213.365 107.038L213.099 106.45H212.454V107.45ZM204.314 107.45V106.45H203.668L203.403 107.038L204.314 107.45ZM169.224 185L168.313 184.588L167.674 186H169.224V185ZM178.134 185V186H178.781L179.046 185.409L178.134 185ZM187.264 164.65V163.65H186.616L186.351 164.241L187.264 164.65ZM229.174 164.65L230.088 164.245L229.824 163.65H229.174V164.65ZM238.194 185L237.279 185.405L237.543 186H238.194V185ZM247.544 185V186H249.094L248.455 184.588L247.544 185ZM225.764 156.84V157.84H227.304L226.677 156.433L225.764 156.84ZM190.674 156.84L189.761 156.431L189.13 157.84H190.674V156.84ZM208.274 117.57L209.187 117.163L208.276 115.119L207.361 117.161L208.274 117.57ZM212.454 106.45H204.314V108.45H212.454V106.45ZM203.403 107.038L168.313 184.588L170.135 185.412L205.225 107.862L203.403 107.038ZM169.224 186H178.134V184H169.224V186ZM179.046 185.409L188.176 165.059L186.351 164.241L177.221 184.591L179.046 185.409ZM187.264 165.65H229.174V163.65H187.264V165.65ZM228.259 165.055L237.279 185.405L239.108 184.595L230.088 164.245L228.259 165.055ZM238.194 186H247.544V184H238.194V186ZM248.455 184.588L213.365 107.038L211.543 107.862L246.633 185.412L248.455 184.588ZM225.764 155.84H190.674V157.84H225.764V155.84ZM191.586 157.249L209.186 117.979L207.361 117.161L189.761 156.431L191.586 157.249ZM207.36 117.977L224.85 157.247L226.677 156.433L209.187 117.163L207.36 117.977ZM326.418 185V186H328.421L327.217 184.399L326.418 185ZM302.768 153.54L302.6 152.554L300.983 152.83L301.969 154.141L302.768 153.54ZM311.128 150.9L311.565 151.8L311.128 150.9ZM317.728 146.28L318.435 146.987L317.728 146.28ZM322.128 139.68L323.053 140.061L323.056 140.051L322.128 139.68ZM321.688 121.64L320.78 122.059L320.784 122.068L321.688 121.64ZM316.078 114.38L315.431 115.143L315.438 115.148L315.445 115.154L316.078 114.38ZM307.278 109.65L306.968 110.601L306.974 110.603L307.278 109.65ZM262.728 108V107H261.728V108H262.728ZM262.728 185H261.728V186H262.728V185ZM271.418 185V186H272.418V185H271.418ZM271.418 155.08V154.08H270.418V155.08H271.418ZM293.418 155.08L294.219 154.482L293.919 154.08H293.418V155.08ZM315.748 185L314.946 185.598L315.246 186H315.748V185ZM313.328 138.03L312.44 137.57L312.433 137.583L312.427 137.596L313.328 138.03ZM309.258 143.09L309.858 143.89L309.868 143.882L309.879 143.874L309.258 143.09ZM302.988 146.17L303.278 147.127L302.988 146.17ZM271.418 147.27H270.418V148.27H271.418V147.27ZM271.418 116.03V115.03H270.418V116.03H271.418ZM309.698 120.1L309.079 120.886L309.09 120.894L309.698 120.1ZM327.217 184.399L303.567 152.939L301.969 154.141L325.619 185.601L327.217 184.399ZM302.936 154.526C306.03 153.998 308.907 153.09 311.565 151.8L310.691 150C308.215 151.203 305.52 152.056 302.6 152.554L302.936 154.526ZM311.565 151.8C314.222 150.509 316.515 148.907 318.435 146.987L317.021 145.573C315.274 147.32 313.168 148.798 310.691 150L311.565 151.8ZM318.435 146.987C320.435 144.987 321.976 142.676 323.053 140.061L321.203 139.299C320.227 141.671 318.834 143.76 317.021 145.573L318.435 146.987ZM323.056 140.051C324.137 137.349 324.668 134.323 324.668 130.99H322.668C322.668 134.11 322.172 136.878 321.199 139.309L323.056 140.051ZM324.668 130.99C324.668 127.413 323.982 124.147 322.592 121.212L320.784 122.068C322.034 124.706 322.668 127.674 322.668 130.99H324.668ZM322.596 121.221C321.213 118.224 319.249 115.683 316.711 113.606L315.445 115.154C317.746 117.037 319.523 119.336 320.78 122.059L322.596 121.221ZM316.725 113.617C314.191 111.468 311.137 109.832 307.582 108.697L306.974 110.603C310.312 111.668 313.125 113.186 315.431 115.143L316.725 113.617ZM307.588 108.699C304.097 107.561 300.176 107 295.838 107V109C300.006 109 303.712 109.539 306.968 110.601L307.588 108.699ZM295.838 107H262.728V109H295.838V107ZM261.728 108V185H263.728V108H261.728ZM262.728 186H271.418V184H262.728V186ZM272.418 185V155.08H270.418V185H272.418ZM271.418 156.08H293.418V154.08H271.418V156.08ZM292.616 155.678L314.946 185.598L316.549 184.402L294.219 154.482L292.616 155.678ZM315.748 186H326.418V184H315.748V186ZM313.868 131.32C313.868 133.672 313.385 135.748 312.44 137.57L314.216 138.49C315.324 136.352 315.868 133.954 315.868 131.32H313.868ZM312.427 137.596C311.541 139.437 310.281 141.005 308.637 142.306L309.879 143.874C311.755 142.389 313.208 140.583 314.229 138.464L312.427 137.596ZM308.658 142.29C307.004 143.53 305.023 144.509 302.698 145.213L303.278 147.127C305.793 146.365 307.992 145.29 309.858 143.89L308.658 142.29ZM302.698 145.213C300.383 145.914 297.842 146.27 295.068 146.27V148.27C298.013 148.27 300.752 147.892 303.278 147.127L302.698 145.213ZM295.068 146.27H271.418V148.27H295.068V146.27ZM272.418 147.27V116.03H270.418V147.27H272.418ZM271.418 117.03H295.178V115.03H271.418V117.03ZM295.178 117.03C301.279 117.03 305.87 118.359 309.079 120.886L310.316 119.314C306.633 116.414 301.543 115.03 295.178 115.03V117.03ZM309.09 120.894C312.259 123.321 313.868 126.75 313.868 131.32H315.868C315.868 126.21 314.03 122.159 310.306 119.306L309.09 120.894ZM398.43 119L397.738 119.722L397.745 119.729L398.43 119ZM385.45 110.97L385.081 111.899L385.089 111.903L385.097 111.906L385.45 110.97ZM342.22 108V107H341.22V108H342.22ZM342.22 185H341.22V186H342.22V185ZM385.45 182.03L385.086 181.099L385.081 181.101L385.45 182.03ZM398.43 173.89L397.745 173.161L397.738 173.168L398.43 173.89ZM406.9 161.68L407.821 162.069L407.824 162.064L406.9 161.68ZM398.54 158.6L397.618 158.213L397.615 158.221L397.612 158.229L398.54 158.6ZM392.16 168.28L392.867 168.987L392.16 168.28ZM382.15 174.66L381.788 173.728L382.15 174.66ZM350.91 176.97H349.91V177.97H350.91V176.97ZM350.91 116.03V115.03H349.91V116.03H350.91ZM382.15 118.45L381.773 119.376L381.78 119.379L381.788 119.382L382.15 118.45ZM392.16 124.94L391.444 125.638L391.453 125.647L391.462 125.656L392.16 124.94ZM398.54 134.62L397.609 134.985L397.612 134.993L397.615 135.001L398.54 134.62ZM410.87 146.39C410.87 140.839 409.857 135.646 407.821 130.821L405.979 131.599C407.904 136.161 408.87 141.088 408.87 146.39H410.87ZM407.821 130.821C405.788 126.001 402.885 121.815 399.115 118.271L397.745 119.729C401.309 123.079 404.052 127.032 405.979 131.599L407.821 130.821ZM399.122 118.278C395.423 114.73 390.978 111.984 385.803 110.034L385.097 111.906C390.042 113.769 394.25 116.376 397.738 119.722L399.122 118.278ZM385.819 110.041C380.702 108.009 375.075 107 368.95 107V109C374.852 109 380.225 109.971 385.081 111.899L385.819 110.041ZM368.95 107H342.22V109H368.95V107ZM341.22 108V185H343.22V108H341.22ZM342.22 186H368.95V184H342.22V186ZM368.95 186C375.075 186 380.702 184.991 385.819 182.959L385.081 181.101C380.225 183.029 374.852 184 368.95 184V186ZM385.814 182.961C390.985 180.938 395.426 178.157 399.122 174.612L397.738 173.168C394.247 176.516 390.035 179.162 385.086 181.099L385.814 182.961ZM399.115 174.619C402.885 171.075 405.788 166.889 407.821 162.069L405.979 161.291C404.052 165.858 401.309 169.811 397.745 173.161L399.115 174.619ZM407.824 162.064C409.857 157.169 410.87 151.941 410.87 146.39H408.87C408.87 151.692 407.904 156.658 405.977 161.296L407.824 162.064ZM399.85 146.61C399.85 150.815 399.102 154.679 397.618 158.213L399.462 158.987C401.058 155.188 401.85 151.058 401.85 146.61H399.85ZM397.612 158.229C396.195 161.77 394.144 164.882 391.453 167.573L392.867 168.987C395.75 166.104 397.952 162.764 399.469 158.971L397.612 158.229ZM391.453 167.573C388.848 170.178 385.632 172.233 381.788 173.728L382.513 175.592C386.588 174.007 390.046 171.809 392.867 168.987L391.453 167.573ZM381.788 173.728C377.958 175.217 373.683 175.97 368.95 175.97V177.97C373.897 177.97 378.422 177.183 382.513 175.592L381.788 173.728ZM368.95 175.97H350.91V177.97H368.95V175.97ZM351.91 176.97V116.03H349.91V176.97H351.91ZM350.91 117.03H368.95V115.03H350.91V117.03ZM368.95 117.03C373.678 117.03 377.947 117.818 381.773 119.376L382.527 117.524C378.433 115.856 373.902 115.03 368.95 115.03V117.03ZM381.788 119.382C385.627 120.875 388.839 122.963 391.444 125.638L392.877 124.242C390.054 121.344 386.593 119.105 382.513 117.518L381.788 119.382ZM391.462 125.656C394.144 128.267 396.193 131.373 397.609 134.985L399.471 134.255C397.954 130.387 395.75 127.039 392.858 124.224L391.462 125.656ZM397.615 135.001C399.103 138.614 399.85 142.48 399.85 146.61H401.85C401.85 142.233 401.057 138.106 399.465 134.239L397.615 135.001Z" fill="white"/>
</svg>
