<svg width="22" height="40" viewBox="0 0 22 40" fill="none" xmlns="http://www.w3.org/2000/svg">
<path d="M1.78544 0C2.01618 -0.000408173 2.23762 0.0908737 2.40095 0.25388L21.5267 19.3796C21.8661 19.719 21.8661 20.2693 21.5267 20.6089L2.40095 39.7346C2.06736 40.08 1.51706 40.0895 1.17166 39.756C0.826332 39.4224 0.816797 38.8721 1.1503 38.5267C1.15731 38.5194 1.1644 38.5123 1.17166 38.5053L19.6819 19.9951L1.16994 1.4848C0.83 1.14575 0.829348 0.595287 1.16839 0.255344C1.33189 0.091526 1.55398 -0.000408173 1.78544 0Z" fill="#F44336"/>
<path d="M1.78544 0C2.01618 -0.000408173 2.23762 0.0908737 2.40095 0.25388L21.5267 19.3796C21.8661 19.719 21.8661 20.2693 21.5267 20.6089L2.40095 39.7346C2.06736 40.08 1.51706 40.0895 1.17166 39.756C0.826332 39.4224 0.816797 38.8721 1.1503 38.5267C1.15731 38.5194 1.1644 38.5123 1.17166 38.5053L19.6819 19.9951L1.16994 1.4848C0.83 1.14575 0.829348 0.595287 1.16839 0.255344C1.33189 0.091526 1.55398 -0.000408173 1.78544 0Z" fill="black"/>
</svg>
