<svg width="231" height="186" viewBox="0 0 231 186" fill="none" xmlns="http://www.w3.org/2000/svg">
<path d="M36.04 9.03V8.03H35.04V9.03H36.04ZM61.89 9.03V10.03H62.89V9.03H61.89ZM61.89 0.999995H62.89V-5.24521e-06H61.89V0.999995ZM1.39 0.999995V-5.24521e-06H0.39V0.999995H1.39ZM1.39 9.03H0.39V10.03H1.39V9.03ZM27.24 9.03H28.24V8.03H27.24V9.03ZM27.24 78H26.24V79H27.24V78ZM36.04 78V79H37.04V78H36.04ZM36.04 10.03H61.89V8.03H36.04V10.03ZM62.89 9.03V0.999995H60.89V9.03H62.89ZM61.89 -5.24521e-06H1.39V1.99999H61.89V-5.24521e-06ZM0.39 0.999995V9.03H2.39V0.999995H0.39ZM1.39 10.03H27.24V8.03H1.39V10.03ZM26.24 9.03V78H28.24V9.03H26.24ZM27.24 79H36.04V77H27.24V79ZM37.04 78V9.03H35.04V78H37.04ZM141.908 78V79H143.911L142.707 77.3991L141.908 78ZM118.258 46.54L118.09 45.5543L116.474 45.8302L117.459 47.1409L118.258 46.54ZM126.618 43.9L127.055 44.7995L126.618 43.9ZM133.218 39.28L133.925 39.9871L133.218 39.28ZM137.618 32.68L138.543 33.0608L138.547 33.0514L137.618 32.68ZM137.178 14.64L136.27 15.0591L136.274 15.0681L137.178 14.64ZM131.568 7.38L130.921 8.14251L130.928 8.14829L130.935 8.15395L131.568 7.38ZM122.768 2.64999L122.458 3.60074L122.464 3.60265L122.768 2.64999ZM78.2181 0.999995V-5.24521e-06H77.2181V0.999995H78.2181ZM78.2181 78H77.2181V79H78.2181V78ZM86.9081 78V79H87.9081V78H86.9081ZM86.9081 48.08V47.08H85.9081V48.08H86.9081ZM108.908 48.08L109.71 47.4819L109.41 47.08H108.908V48.08ZM131.238 78L130.437 78.5981L130.737 79H131.238V78ZM128.818 31.03L127.93 30.5697L127.924 30.5828L127.917 30.5962L128.818 31.03ZM124.748 36.09L125.348 36.89L125.359 36.8822L125.369 36.874L124.748 36.09ZM118.478 39.17L118.768 40.127L118.478 39.17ZM86.9081 40.27H85.9081V41.27H86.9081V40.27ZM86.9081 9.03V8.03H85.9081V9.03H86.9081ZM125.188 13.1L124.57 13.8858L124.58 13.8939L125.188 13.1ZM142.707 77.3991L119.057 45.9391L117.459 47.1409L141.109 78.6009L142.707 77.3991ZM118.426 47.5257C121.52 46.9976 124.398 46.0902 127.055 44.7995L126.181 43.0005C123.705 44.2031 121.01 45.0557 118.09 45.5543L118.426 47.5257ZM127.055 44.7995C129.712 43.5091 132.006 41.9067 133.925 39.9871L132.511 38.5729C130.764 40.32 128.658 41.7976 126.181 43.0005L127.055 44.7995ZM133.925 39.9871C135.925 37.9871 137.466 35.6762 138.543 33.0607L136.693 32.2992C135.717 34.6705 134.324 36.7596 132.511 38.5729L133.925 39.9871ZM138.547 33.0514C139.628 30.3486 140.158 27.3229 140.158 23.99H138.158C138.158 27.1104 137.662 29.8781 136.69 32.3086L138.547 33.0514ZM140.158 23.99C140.158 20.4128 139.472 17.1474 138.082 14.2119L136.274 15.0681C137.524 17.7059 138.158 20.6738 138.158 23.99H140.158ZM138.086 14.2209C136.703 11.2244 134.74 8.68273 132.201 6.60604L130.935 8.15395C133.237 10.0373 135.013 12.3356 136.27 15.0591L138.086 14.2209ZM132.215 6.61749C129.681 4.46763 126.627 2.83189 123.072 1.69733L122.464 3.60265C125.803 4.66811 128.615 6.1857 130.921 8.14251L132.215 6.61749ZM123.078 1.69926C119.587 0.560882 115.666 -5.24521e-06 111.328 -5.24521e-06V1.99999C115.496 1.99999 119.202 2.53911 122.458 3.60072L123.078 1.69926ZM111.328 -5.24521e-06H78.2181V1.99999H111.328V-5.24521e-06ZM77.2181 0.999995V78H79.2181V0.999995H77.2181ZM78.2181 79H86.9081V77H78.2181V79ZM87.9081 78V48.08H85.9081V78H87.9081ZM86.9081 49.08H108.908V47.08H86.9081V49.08ZM108.107 48.6781L130.437 78.5981L132.04 77.4019L109.71 47.4819L108.107 48.6781ZM131.238 79H141.908V77H131.238V79ZM129.358 24.32C129.358 26.6723 128.875 28.748 127.93 30.5697L129.706 31.4903C130.815 29.352 131.358 26.9544 131.358 24.32H129.358ZM127.917 30.5962C127.031 32.4367 125.771 34.0045 124.127 35.306L125.369 36.874C127.245 35.3888 128.699 33.5833 129.719 31.4638L127.917 30.5962ZM124.148 35.29C122.494 36.5304 120.513 37.5085 118.188 38.213L118.768 40.127C121.283 39.3648 123.482 38.2896 125.348 36.89L124.148 35.29ZM118.188 38.213C115.874 38.9144 113.333 39.27 110.558 39.27V41.27C113.504 41.27 116.243 40.8923 118.768 40.127L118.188 38.213ZM110.558 39.27H86.9081V41.27H110.558V39.27ZM87.9081 40.27V9.03H85.9081V40.27H87.9081ZM86.9081 10.03H110.668V8.03H86.9081V10.03ZM110.668 10.03C116.769 10.03 121.36 11.3591 124.57 13.8857L125.807 12.3143C122.123 9.41421 117.034 8.03 110.668 8.03V10.03ZM124.58 13.8939C127.749 16.3211 129.358 19.7503 129.358 24.32H131.358C131.358 19.2097 129.521 15.1589 125.796 12.3061L124.58 13.8939ZM158.48 0.999995V-5.24521e-06H157.48V0.999995H158.48ZM158.48 78H157.48V79H158.48V78ZM167.17 78V79H168.17V78H167.17ZM167.17 0.999995H168.17V-5.24521e-06H167.17V0.999995ZM157.48 0.999995V78H159.48V0.999995H157.48ZM158.48 79H167.17V77H158.48V79ZM168.17 78V0.999995H166.17V78H168.17ZM167.17 -5.24521e-06H158.48V1.99999H167.17V-5.24521e-06ZM72.89 170.79L73.6098 171.484L74.2981 170.77L73.5902 170.076L72.89 170.79ZM67.17 165.18L67.8702 164.466L67.1775 163.787L66.4775 164.459L67.17 165.18ZM55.95 173.43L56.3972 174.324L56.404 174.321L56.4108 174.317L55.95 173.43ZM30.43 173.87L30.0051 174.775L30.0161 174.78L30.0273 174.785L30.43 173.87ZM20.97 167.05L20.2351 167.728L20.2445 167.738L20.97 167.05ZM14.7 156.93L13.7644 157.283L13.7673 157.291L13.7703 157.298L14.7 156.93ZM14.7 131.96L13.7703 131.592L13.7667 131.601L14.7 131.96ZM20.97 121.84L20.2445 121.152L20.2352 121.162L20.97 121.84ZM30.43 115.13L30.0273 114.215L30.0204 114.218L30.43 115.13ZM55.84 115.68L55.3721 116.564L55.3792 116.567L55.84 115.68ZM66.51 123.27L65.8277 124.001L66.5596 124.684L67.2419 123.951L66.51 123.27ZM72.45 116.89L73.1819 117.571L73.8524 116.851L73.1431 116.169L72.45 116.89ZM66.51 111.94L65.91 112.74L65.9193 112.747L65.9288 112.754L66.51 111.94ZM59.8 108.09L59.3862 109L59.3978 109.006L59.4095 109.011L59.8 108.09ZM51.88 105.56L51.674 106.539L51.6791 106.54L51.88 105.56ZM26.8 107.87L27.1957 108.788L27.2074 108.783L26.8 107.87ZM14.48 116.45L15.2017 117.142L15.2086 117.135L14.48 116.45ZM6.34 129.1L5.41437 128.721L5.40959 128.733L6.34 129.1ZM6.34 160.23L5.40951 160.597L5.41445 160.609L6.34 160.23ZM14.48 172.88L13.7583 173.572L13.7655 173.58L14.48 172.88ZM26.69 181.24L26.2892 182.156L26.69 181.24ZM51.66 183.33L51.8849 184.304L51.66 183.33ZM59.69 180.58L60.1158 181.485L59.69 180.58ZM66.62 176.4L67.2244 177.197L67.2284 177.194L66.62 176.4ZM73.5902 170.076L67.8702 164.466L66.4698 165.894L72.1898 171.504L73.5902 170.076ZM66.4775 164.459C62.8675 167.924 59.2039 170.614 55.4892 172.543L56.4108 174.317C60.3227 172.286 64.1392 169.476 67.8625 165.901L66.4775 164.459ZM55.5028 172.536C51.8575 174.358 47.471 175.29 42.31 175.29V177.29C47.709 177.29 52.4159 176.315 56.3972 174.324L55.5028 172.536ZM42.31 175.29C38.1866 175.29 34.3647 174.509 30.8327 172.955L30.0273 174.785C33.8286 176.458 37.9267 177.29 42.31 177.29V175.29ZM30.8549 172.965C27.3736 171.331 24.3224 169.131 21.6955 166.362L20.2445 167.738C23.0443 170.689 26.2997 173.036 30.0051 174.775L30.8549 172.965ZM21.7048 166.372C19.1543 163.609 17.1277 160.342 15.6297 156.562L13.7703 157.298C15.3523 161.291 17.5057 164.771 20.2352 167.728L21.7048 166.372ZM15.6356 156.577C14.2147 152.812 13.5 148.752 13.5 144.39H11.5C11.5 148.975 12.252 153.275 13.7644 157.283L15.6356 156.577ZM13.5 144.39C13.5 140.028 14.2147 136.007 15.6333 132.319L13.7667 131.601C12.2519 135.539 11.5 139.806 11.5 144.39H13.5ZM15.6297 132.328C17.1277 128.548 19.1543 125.281 21.7048 122.518L20.2352 121.162C17.5057 124.119 15.3523 127.599 13.7703 131.592L15.6297 132.328ZM21.6955 122.528C24.3192 119.763 27.3652 117.602 30.8396 116.042L30.0204 114.218C26.3081 115.884 23.0475 118.197 20.2445 121.152L21.6955 122.528ZM30.8327 116.045C34.3647 114.491 38.1866 113.71 42.31 113.71V111.71C37.9267 111.71 33.8286 112.542 30.0273 114.215L30.8327 116.045ZM42.31 113.71C47.4666 113.71 51.8077 114.677 55.3721 116.564L56.3079 114.796C52.3923 112.723 47.7134 111.71 42.31 111.71V113.71ZM55.3792 116.567C59.1079 118.504 62.5907 120.98 65.8277 124.001L67.1923 122.539C63.8293 119.4 60.1987 116.816 56.3008 114.792L55.3792 116.567ZM67.2419 123.951L73.1819 117.571L71.7181 116.209L65.7781 122.589L67.2419 123.951ZM73.1431 116.169C71.2031 114.304 69.1859 112.622 67.0912 111.126L65.9288 112.754C67.9408 114.191 69.8835 115.81 71.7569 117.611L73.1431 116.169ZM67.11 111.14C64.9904 109.55 62.6832 108.227 60.1906 107.169L59.4095 109.011C61.7568 110.006 63.9229 111.25 65.91 112.74L67.11 111.14ZM60.2138 107.18C57.7194 106.046 55.0072 105.181 52.0809 104.58L51.6791 106.54C54.4728 107.113 57.0406 107.934 59.3862 109L60.2138 107.18ZM52.086 104.581C49.2179 103.978 45.9937 103.68 42.42 103.68V105.68C45.8863 105.68 48.9687 105.969 51.674 106.539L52.086 104.581ZM42.42 103.68C36.6446 103.68 31.2977 104.768 26.3926 106.957L27.2074 108.783C31.8357 106.718 36.9021 105.68 42.42 105.68V103.68ZM26.4044 106.952C21.5159 109.057 17.2948 111.995 13.7514 115.765L15.2086 117.135C18.5585 113.571 22.5507 110.789 27.1956 108.788L26.4044 106.952ZM13.7583 115.758C10.2202 119.446 7.43965 123.771 5.41445 128.721L7.26555 129.479C9.20035 124.749 11.8464 120.64 15.2017 117.142L13.7583 115.758ZM5.40959 128.733C3.45435 133.697 2.48 138.992 2.48 144.61H4.48C4.48 139.228 5.41232 134.183 7.27041 129.467L5.40959 128.733ZM2.48 144.61C2.48 150.3 3.45374 155.632 5.40959 160.597L7.27041 159.863C5.41292 155.148 4.48 150.067 4.48 144.61H2.48ZM5.41445 160.609C7.43965 165.559 10.2202 169.884 13.7583 173.572L15.2017 172.188C11.8464 168.69 9.20035 164.581 7.26555 159.851L5.41445 160.609ZM13.7655 173.58C17.3054 177.195 21.4831 180.054 26.2892 182.156L27.0908 180.324C22.5102 178.32 18.5479 175.605 15.1945 172.18L13.7655 173.58ZM26.2892 182.156C31.1197 184.27 36.391 185.32 42.09 185.32V183.32C36.6424 183.32 31.647 182.317 27.0908 180.324L26.2892 182.156ZM42.09 185.32C45.6712 185.32 48.9382 184.984 51.8849 184.304L51.4351 182.356C48.6618 182.996 45.5488 183.32 42.09 183.32V185.32ZM51.8849 184.304C54.8096 183.629 57.5541 182.69 60.1158 181.485L59.2642 179.675C56.8392 180.816 54.2304 181.711 51.4351 182.356L51.8849 184.304ZM60.1158 181.485C62.6702 180.283 65.0404 178.854 67.2244 177.197L66.0156 175.603C63.9463 177.173 61.6964 178.531 59.2642 179.675L60.1158 181.485ZM67.2284 177.194C69.4691 175.476 71.5962 173.572 73.6098 171.484L72.1702 170.096C70.2238 172.114 68.1709 173.951 66.0116 175.606L67.2284 177.194ZM158.223 129.21L157.287 129.564L157.291 129.573L157.294 129.581L158.223 129.21ZM150.303 116.56L149.574 117.245L149.581 117.252L150.303 116.56ZM137.872 107.87L137.465 108.783L137.47 108.786L137.872 107.87ZM105.863 107.98L106.265 108.896L106.276 108.89L105.863 107.98ZM85.4025 129.43L86.331 129.801L86.3329 129.797L85.4025 129.43ZM85.2925 159.9L84.3573 160.254L84.3606 160.263L84.364 160.271L85.2925 159.9ZM93.3225 172.55L92.5938 173.235L92.6008 173.242L93.3225 172.55ZM105.643 181.13L105.235 182.043L105.24 182.046L105.643 181.13ZM137.763 181.13L138.165 182.046L138.176 182.04L137.763 181.13ZM150.193 172.33L149.464 171.645L150.193 172.33ZM158.223 159.68L159.151 160.051L159.153 160.047L158.223 159.68ZM149.753 157.04L148.823 156.672L148.819 156.681L149.753 157.04ZM143.592 167.05L142.858 166.372L143.592 167.05ZM134.023 173.87L134.425 174.785L134.434 174.782L134.023 173.87ZM109.713 173.76L109.295 174.669L109.301 174.672L109.713 173.76ZM100.143 166.94L100.868 166.252L100.143 166.94ZM93.7625 156.82L92.8269 157.173L92.8298 157.181L92.8328 157.188L93.7625 156.82ZM93.7625 132.07L92.8328 131.702L92.8292 131.711L93.7625 132.07ZM100.033 121.95L100.767 122.628L100.033 121.95ZM109.493 115.24L109.895 116.155L109.904 116.152L109.493 115.24ZM133.803 115.24L133.385 116.149L133.391 116.152L133.803 115.24ZM143.482 122.06L142.757 122.748L143.482 122.06ZM149.753 132.18L148.817 132.533L148.82 132.541L148.823 132.548L149.753 132.18ZM162.083 144.39C162.083 138.915 161.107 133.728 159.151 128.839L157.294 129.581C159.151 134.225 160.083 139.158 160.083 144.39H162.083ZM159.158 128.856C157.279 123.895 154.568 119.562 151.024 115.868L149.581 117.252C152.931 120.745 155.5 124.845 157.287 129.564L159.158 128.856ZM151.031 115.875C147.488 112.105 143.232 109.132 138.275 106.954L137.47 108.786C142.193 110.861 146.224 113.681 149.574 117.245L151.031 115.875ZM138.28 106.957C133.37 104.766 127.912 103.68 121.923 103.68V105.68C127.666 105.68 132.842 106.72 137.465 108.783L138.28 106.957ZM121.923 103.68C115.928 103.68 110.432 104.805 105.449 107.07L106.276 108.89C110.973 106.755 116.184 105.68 121.923 105.68V103.68ZM105.46 107.064C100.503 109.242 96.2473 112.215 92.7039 115.985L94.1611 117.355C97.511 113.791 101.542 110.971 106.265 108.896L105.46 107.064ZM92.7039 115.985C89.1674 119.747 86.4236 124.11 84.4721 129.063L86.3329 129.797C88.1947 125.07 90.8042 120.926 94.1611 117.355L92.7039 115.985ZM84.474 129.059C82.5181 133.948 81.5425 139.135 81.5425 144.61H83.5425C83.5425 139.378 84.4736 134.445 86.331 129.801L84.474 129.059ZM81.5425 144.61C81.5425 150.08 82.4797 155.297 84.3573 160.254L86.2277 159.546C84.4387 154.823 83.5425 149.847 83.5425 144.61H81.5425ZM84.364 160.271C86.3162 165.152 89.0598 169.475 92.5939 173.235L94.0511 171.865C90.6918 168.291 88.0822 164.182 86.221 159.529L84.364 160.271ZM92.6008 173.242C96.1413 176.933 100.356 179.866 105.235 182.043L106.05 180.217C101.396 178.14 97.3971 175.353 94.0442 171.858L92.6008 173.242ZM105.24 182.046C110.22 184.234 115.713 185.32 121.702 185.32V183.32C115.959 183.32 110.745 182.28 106.045 180.214L105.24 182.046ZM121.702 185.32C127.692 185.32 133.185 184.234 138.165 182.046L137.36 180.214C132.66 182.28 127.446 183.32 121.702 183.32V185.32ZM138.176 182.04C143.128 179.79 147.38 176.782 150.921 173.015L149.464 171.645C146.111 175.212 142.077 178.07 137.349 180.22L138.176 182.04ZM150.921 173.015C154.455 169.255 157.199 164.932 159.151 160.051L157.294 159.309C155.433 163.962 152.823 168.071 149.464 171.645L150.921 173.015ZM159.153 160.047C161.107 155.086 162.083 149.865 162.083 144.39H160.083C160.083 149.622 159.151 154.594 157.292 159.313L159.153 160.047ZM151.062 144.61C151.062 148.891 150.314 152.908 148.823 156.672L150.682 157.408C152.271 153.398 153.062 149.129 153.062 144.61H151.062ZM148.819 156.681C147.396 160.382 145.408 163.609 142.858 166.372L144.327 167.728C147.057 164.771 149.176 161.324 150.686 157.399L148.819 156.681ZM142.858 166.372C140.314 169.128 137.236 171.324 133.611 172.958L134.434 174.782C138.289 173.043 141.591 170.692 144.327 167.728L142.858 166.372ZM133.62 172.955C130.092 174.507 126.198 175.29 121.923 175.29V177.29C126.447 177.29 130.62 176.46 134.425 174.785L133.62 172.955ZM121.923 175.29C117.654 175.29 113.725 174.473 110.124 172.848L109.301 174.672C113.18 176.421 117.391 177.29 121.923 177.29V175.29ZM110.13 172.852C106.577 171.217 103.492 169.017 100.868 166.252L99.417 167.628C102.22 170.583 105.515 172.93 109.295 174.668L110.13 172.852ZM100.868 166.252C98.2477 163.49 96.188 160.227 94.6922 156.452L92.8328 157.188C94.417 161.186 96.6106 164.67 99.417 167.628L100.868 166.252ZM94.6981 156.467C93.2765 152.7 92.5625 148.677 92.5625 144.39H90.5625C90.5625 148.903 91.3152 153.167 92.8269 157.173L94.6981 156.467ZM92.5625 144.39C92.5625 140.103 93.2765 136.119 94.6958 132.429L92.8292 131.711C91.3151 135.647 90.5625 139.877 90.5625 144.39H92.5625ZM94.6922 132.438C96.1902 128.658 98.2168 125.391 100.767 122.628L99.2977 121.272C96.5682 124.229 94.4148 127.709 92.8328 131.702L94.6922 132.438ZM100.767 122.628C103.311 119.872 106.351 117.715 109.895 116.155L109.09 114.325C105.301 115.992 102.034 118.308 99.2977 121.272L100.767 122.628ZM109.904 116.152C113.505 114.527 117.434 113.71 121.702 113.71V111.71C117.171 111.71 112.96 112.579 109.081 114.328L109.904 116.152ZM121.702 113.71C125.971 113.71 129.86 114.527 133.385 116.148L134.22 114.332C130.411 112.579 126.234 111.71 121.702 111.71V113.71ZM133.391 116.152C137.018 117.787 140.137 119.986 142.757 122.748L144.208 121.372C141.402 118.414 138.067 116.066 134.214 114.328L133.391 116.152ZM142.757 122.748C145.374 125.506 147.395 128.764 148.817 132.533L150.688 131.827C149.177 127.822 147.018 124.334 144.208 121.372L142.757 122.748ZM148.823 132.548C150.314 136.312 151.062 140.329 151.062 144.61H153.062C153.062 140.091 152.271 135.822 150.682 131.812L148.823 132.548ZM203.296 114.03V113.03H202.296V114.03H203.296ZM229.146 114.03V115.03H230.146V114.03H229.146ZM229.146 106H230.146V105H229.146V106ZM168.646 106V105H167.646V106H168.646ZM168.646 114.03H167.646V115.03H168.646V114.03ZM194.496 114.03H195.496V113.03H194.496V114.03ZM194.496 183H193.496V184H194.496V183ZM203.296 183V184H204.296V183H203.296ZM203.296 115.03H229.146V113.03H203.296V115.03ZM230.146 114.03V106H228.146V114.03H230.146ZM229.146 105H168.646V107H229.146V105ZM167.646 106V114.03H169.646V106H167.646ZM168.646 115.03H194.496V113.03H168.646V115.03ZM193.496 114.03V183H195.496V114.03H193.496ZM194.496 184H203.296V182H194.496V184ZM204.296 183V114.03H202.296V183H204.296Z" fill="white"/>
</svg>
