<svg width="235" height="188" viewBox="0 0 235 188" fill="none" xmlns="http://www.w3.org/2000/svg">
<path d="M7.34 40.73L6.3417 40.6718L6.30821 41.2461L6.7879 41.5638L7.34 40.73ZM15.48 46.12L14.9279 46.9538L15.4018 47.2675L15.9138 47.021L15.48 46.12ZM21.97 43.7L22.2407 44.6627L21.97 43.7ZM41.22 46.23L40.5857 47.0031L40.5964 47.0119L40.6074 47.0204L41.22 46.23ZM41.44 65.37L40.7843 64.615L41.44 65.37ZM19.99 66.58L19.5267 67.4662L19.5387 67.4725L19.5508 67.4784L19.99 66.58ZM10.53 59.76L11.2105 59.0272L10.4465 58.3178L9.76954 59.1106L10.53 59.76ZM2.17 69.55L1.40954 68.9006L0.796904 69.618L1.47747 70.2714L2.17 69.55ZM14.6 78.13L14.17 79.0329L14.1819 79.0384L14.6 78.13ZM42.1 79.45L42.4338 80.3926L42.1 79.45ZM51.12 74.17L50.4462 73.431L51.12 74.17ZM56.84 65.92L55.9219 65.5236L55.9181 65.5324L55.9145 65.5414L56.84 65.92ZM56.84 44.47L55.9209 44.8639L55.9266 44.8773L55.9327 44.8905L56.84 44.47ZM51.23 36.88L50.583 37.6425L50.5898 37.6483L50.5968 37.654L51.23 36.88ZM42.65 32.37L42.3468 33.3229L42.3596 33.327L42.3725 33.3307L42.65 32.37ZM25.49 31.49L25.6861 32.4706L25.7005 32.4677L25.7149 32.4644L25.49 31.49ZM19.99 33.03L18.9922 32.9631L18.8899 34.4889L20.3287 33.9709L19.99 33.03ZM21.2 14.99V13.99H20.2648L20.2022 14.9231L21.2 14.99ZM55.52 14.99V15.99H56.52V14.99H55.52ZM55.52 2.99999H56.52V1.99999H55.52V2.99999ZM9.54 2.99999V1.99999H8.59661L8.5417 2.94178L9.54 2.99999ZM6.7879 41.5638L14.9279 46.9538L16.0321 45.2862L7.8921 39.8962L6.7879 41.5638ZM15.9138 47.021C17.836 46.0955 19.9441 45.3086 22.2407 44.6627L21.6993 42.7373C19.3025 43.4114 17.084 44.2378 15.0462 45.219L15.9138 47.021ZM22.2407 44.6627C24.4878 44.0307 26.9621 43.71 29.67 43.71V41.71C26.8046 41.71 24.1456 42.0493 21.6993 42.7373L22.2407 44.6627ZM29.67 43.71C34.3508 43.71 37.9533 44.8431 40.5857 47.0031L41.8543 45.4569C38.7667 42.9235 34.6692 41.71 29.67 41.71V43.71ZM40.6074 47.0204C43.278 49.0901 44.62 51.9052 44.62 55.58H46.62C46.62 51.3348 45.0287 47.9165 41.8326 45.4396L40.6074 47.0204ZM44.62 55.58C44.62 59.4336 43.3261 62.4076 40.7843 64.615L42.0957 66.125C45.1273 63.4924 46.62 59.9398 46.62 55.58H44.62ZM40.7843 64.615C38.2219 66.8402 34.7718 68 30.33 68V70C35.1282 70 39.0848 68.7398 42.0957 66.125L40.7843 64.615ZM30.33 68C26.8924 68 23.5956 67.2296 20.4292 65.6816L19.5508 67.4784C22.9844 69.157 26.581 70 30.33 70V68ZM20.4533 65.6938C17.3165 64.0541 14.235 61.8357 11.2105 59.0272L9.84955 60.4928C12.985 63.4043 16.2101 65.7325 19.5267 67.4662L20.4533 65.6938ZM9.76954 59.1106L1.40954 68.9006L2.93046 70.1994L11.2905 60.4094L9.76954 59.1106ZM1.47747 70.2714C5.22192 73.8661 9.45405 76.7871 14.1701 79.0329L15.0299 77.2271C10.506 75.0729 6.45142 72.2739 2.86253 68.8286L1.47747 70.2714ZM14.1819 79.0384C18.9532 81.2347 24.3797 82.32 30.44 82.32V80.32C24.6203 80.32 19.4868 79.2786 15.0181 77.2216L14.1819 79.0384ZM30.44 82.32C34.7915 82.32 38.7929 81.6821 42.4338 80.3926L41.7662 78.5074C38.3671 79.7112 34.5952 80.32 30.44 80.32V82.32ZM42.4338 80.3926C46.0661 79.1062 49.1918 77.2813 51.7938 74.909L50.4462 73.431C48.0615 75.6053 45.1739 77.3005 41.7662 78.5074L42.4338 80.3926ZM51.7938 74.909C54.4004 72.5323 56.3913 69.6579 57.7655 66.2986L55.9145 65.5414C54.6487 68.6354 52.8263 71.261 50.4462 73.431L51.7938 74.909ZM57.7581 66.3164C59.2119 62.9497 59.93 59.2191 59.93 55.14H57.93C57.93 58.9809 57.2548 62.437 55.9219 65.5236L57.7581 66.3164ZM59.93 55.14C59.93 50.922 59.2145 47.2156 57.7473 44.0495L55.9327 44.8905C57.2522 47.7378 57.93 51.1447 57.93 55.14H59.93ZM57.7591 44.0761C56.3805 40.8591 54.4166 38.1951 51.8632 36.106L50.5968 37.654C52.8834 39.5249 54.6596 41.9209 55.9209 44.8639L57.7591 44.0761ZM51.877 36.1175C49.3406 33.9654 46.352 32.3986 42.9275 31.4093L42.3725 33.3307C45.548 34.2481 48.2794 35.6879 50.583 37.6425L51.877 36.1175ZM42.9532 31.4171C39.6188 30.3561 36.0322 29.83 32.2 29.83V31.83C35.8478 31.83 39.2278 32.3305 42.3468 33.3229L42.9532 31.4171ZM32.2 29.83C29.5796 29.83 27.2643 30.0543 25.2651 30.5156L25.7149 32.4644C27.5291 32.0457 29.687 31.83 32.2 31.83V29.83ZM25.2939 30.5094C23.4101 30.8862 21.5292 31.4131 19.6513 32.0891L20.3287 33.9709C22.1175 33.3269 23.9032 32.8272 25.6861 32.4706L25.2939 30.5094ZM20.9878 33.0969L22.1978 15.0569L20.2022 14.9231L18.9922 32.9631L20.9878 33.0969ZM21.2 15.99H55.52V13.99H21.2V15.99ZM56.52 14.99V2.99999H54.52V14.99H56.52ZM55.52 1.99999H9.54V3.99999H55.52V1.99999ZM8.5417 2.94178L6.3417 40.6718L8.3383 40.7882L10.5383 3.05821L8.5417 2.94178ZM136.378 25.88L135.425 26.1832L135.429 26.1962L136.378 25.88ZM129.668 13.23L130.442 12.5976L129.668 13.23ZM119.108 4.76L119.555 3.86557L119.108 4.76ZM91.4977 4.87L91.945 5.76445L91.9512 5.76128L91.4977 4.87ZM80.9377 13.34L81.7124 13.9724L80.9377 13.34ZM74.1177 26.1L75.0664 26.4162L75.0678 26.412L74.1177 26.1ZM74.0077 57.12L73.0547 57.4232L73.0591 57.4362L74.0077 57.12ZM80.8277 69.77L80.0531 70.4024L80.8277 69.77ZM91.3877 78.24L90.9405 79.1344L91.3877 78.24ZM118.888 78.24L119.335 79.1345L119.341 79.1313L118.888 78.24ZM129.558 69.66L128.783 69.0276H128.783L129.558 69.66ZM136.378 57.01L137.326 57.3262L137.328 57.322L136.378 57.01ZM123.398 52.39L122.435 52.118L122.433 52.1252L122.432 52.1323L123.398 52.39ZM119.548 61.08L118.719 60.5197L119.548 61.08ZM113.388 67.02L113.898 67.8799L113.906 67.8752L113.388 67.02ZM97.2177 67.02L96.6994 67.8752L96.709 67.881L96.7188 67.8866L97.2177 67.02ZM90.9477 61.08L90.112 61.6292L90.1212 61.6431L90.1308 61.6567L90.9477 61.08ZM86.9877 52.28L86.0201 52.5324L86.0234 52.545L86.027 52.5575L86.9877 52.28ZM86.9877 30.61L86.0254 30.338L86.0227 30.3478L86.0201 30.3576L86.9877 30.61ZM90.9477 21.92L91.7682 22.4918L91.776 22.4803L90.9477 21.92ZM96.9977 16.09L97.5083 16.9499L97.516 16.9452L96.9977 16.09ZM113.278 16.09L113.796 15.2348L113.278 16.09ZM119.438 22.03L118.609 22.5903L118.615 22.5986L118.621 22.6067L119.438 22.03ZM123.398 30.83L122.43 31.0824L122.433 31.0922L122.435 31.102L123.398 30.83ZM139.798 41.39C139.798 35.7909 138.976 30.5134 137.326 25.5638L135.429 26.1962C137.006 30.9266 137.798 35.9891 137.798 41.39H139.798ZM137.331 25.5768C135.756 20.6283 133.463 16.2974 130.442 12.5976L128.893 13.8624C131.74 17.3493 133.919 21.4517 135.425 26.1832L137.331 25.5768ZM130.442 12.5976C127.421 8.89593 123.789 5.98279 119.555 3.86557L118.661 5.65443C122.639 7.64387 126.048 10.3774 128.893 13.8624L130.442 12.5976ZM119.555 3.86557C115.296 1.73596 110.557 0.679998 105.358 0.679998V2.68C110.279 2.68 114.706 3.67737 118.661 5.65443L119.555 3.86557ZM105.358 0.679998C100.153 0.679998 95.3757 1.77503 91.0443 3.97872L91.9512 5.76128C95.9798 3.71163 100.443 2.68 105.358 2.68V0.679998ZM91.0505 3.97557C86.8161 6.09279 83.1849 9.00594 80.1631 12.7076L81.7124 13.9724C84.5573 10.4874 87.9661 7.75387 91.9449 5.76442L91.0505 3.97557ZM80.1631 12.7076C77.1437 16.4064 74.8149 20.7714 73.1676 25.788L75.0678 26.412C76.6472 21.6019 78.8651 17.4603 81.7124 13.9724L80.1631 12.7076ZM73.1691 25.7838C71.5192 30.7334 70.6977 36.0109 70.6977 41.61H72.6977C72.6977 36.2091 73.4896 31.1466 75.0664 26.4162L73.1691 25.7838ZM70.6977 41.61C70.6977 47.2044 71.4811 52.4774 73.0548 57.4232L74.9607 56.8168C73.4543 52.0826 72.6977 47.0156 72.6977 41.61H70.6977ZM73.0591 57.4362C74.7069 62.3798 77.0357 66.7061 80.0531 70.4024L81.6024 69.1376C78.7531 65.6472 76.5352 61.5402 74.9564 56.8038L73.0591 57.4362ZM80.0531 70.4024C83.0749 74.1041 86.7061 77.0172 90.9405 79.1344L91.835 77.3456C87.8561 75.3561 84.4473 72.6226 81.6024 69.1376L80.0531 70.4024ZM90.9405 79.1344C95.1997 81.264 99.9386 82.32 105.138 82.32V80.32C100.217 80.32 95.7891 79.3226 91.835 77.3456L90.9405 79.1344ZM105.138 82.32C110.337 82.32 115.076 81.264 119.335 79.1344L118.441 77.3456C114.486 79.3226 110.059 80.32 105.138 80.32V82.32ZM119.341 79.1313C123.644 76.9423 127.31 73.9946 130.332 70.2924L128.783 69.0276C125.939 72.512 122.492 75.2844 118.434 77.3487L119.341 79.1313ZM130.332 70.2924C133.35 66.5961 135.679 62.2698 137.326 57.3262L135.429 56.6938C133.85 61.4302 131.632 65.5372 128.783 69.0276L130.332 70.2924ZM137.328 57.322C138.976 52.3017 139.798 46.9892 139.798 41.39H137.798C137.798 46.7908 137.006 51.8916 135.428 56.698L137.328 57.322ZM123.828 41.61C123.828 45.3394 123.362 48.8406 122.435 52.118L124.36 52.662C125.34 49.1927 125.828 45.5073 125.828 41.61H123.828ZM122.432 52.1323C121.576 55.3388 120.336 58.1304 118.719 60.5197L120.376 61.6403C122.133 59.043 123.459 56.0412 124.364 52.6477L122.432 52.1323ZM118.719 60.5197C117.108 62.9013 115.158 64.7776 112.869 66.1648L113.906 67.8752C116.457 66.329 118.614 64.2454 120.376 61.6403L118.719 60.5197ZM112.877 66.1601C110.7 67.4526 108.204 68.11 105.358 68.11V70.11C108.525 70.11 111.382 69.3741 113.898 67.8799L112.877 66.1601ZM105.358 68.11C102.512 68.11 99.9733 67.4527 97.7167 66.1534L96.7188 67.8866C99.3021 69.374 102.19 70.11 105.358 70.11V68.11ZM97.736 66.1648C95.4427 64.7749 93.4517 62.8932 91.7647 60.5033L90.1308 61.6567C91.9638 64.2535 94.1528 66.3318 96.6994 67.8752L97.736 66.1648ZM91.7834 60.5308C90.1579 58.0572 88.8772 55.2174 87.9484 52.0025L86.027 52.5575C87.0049 55.9426 88.3642 58.9695 90.112 61.6292L91.7834 60.5308ZM87.9554 52.0276C87.0992 48.7455 86.6677 45.2011 86.6677 41.39H84.6677C84.6677 45.3522 85.1163 49.0679 86.0201 52.5324L87.9554 52.0276ZM86.6677 41.39C86.6677 37.6539 87.0988 34.146 87.9554 30.8624L86.0201 30.3576C85.1167 33.8206 84.6677 37.4994 84.6677 41.39H86.6677ZM87.95 30.882C88.8786 27.5961 90.1558 24.8051 91.7681 22.4918L90.1273 21.3482C88.3663 23.8749 87.0035 26.8772 86.0254 30.338L87.95 30.882ZM91.776 22.4803C93.3887 20.0963 95.3009 18.2605 97.5083 16.9499L96.4872 15.2301C94.0013 16.7062 91.8801 18.757 90.1195 21.3597L91.776 22.4803ZM97.516 16.9452C99.7699 15.5792 102.302 14.89 105.138 14.89V12.89C101.96 12.89 99.0656 13.6674 96.4794 15.2348L97.516 16.9452ZM105.138 14.89C107.974 14.89 110.506 15.5792 112.759 16.9452L113.796 15.2348C111.21 13.6674 108.315 12.89 105.138 12.89V14.89ZM112.759 16.9452C115.048 18.3324 116.998 20.2087 118.609 22.5903L120.266 21.4697C118.504 18.8646 116.347 16.781 113.796 15.2348L112.759 16.9452ZM118.621 22.6067C120.302 24.9889 121.576 27.809 122.43 31.0824L124.365 30.5776C123.459 27.1043 122.093 24.0577 120.255 21.4533L118.621 22.6067ZM122.435 31.102C123.362 34.3794 123.828 37.8806 123.828 41.61H125.828C125.828 37.7127 125.34 34.0273 124.36 30.558L122.435 31.102ZM185.287 14.22L184.348 14.5618L184.351 14.5711L185.287 14.22ZM181.547 7.95L180.782 8.59319L180.796 8.60976L180.81 8.62572L181.547 7.95ZM161.087 3.77L161.51 4.67627L161.523 4.67016L161.087 3.77ZM155.367 8.06L156.104 8.73572L156.111 8.72824L156.118 8.72062L155.367 8.06ZM151.627 14.33L152.564 14.6811L152.567 14.6717L151.627 14.33ZM151.627 29.51L150.688 29.8518L150.691 29.8611L151.627 29.51ZM155.257 35.78L154.492 36.4232L154.506 36.4398L154.52 36.4557L155.257 35.78ZM160.977 39.96L161.4 39.0538L160.977 39.96ZM175.717 39.96L176.14 40.8663L176.153 40.8602L175.717 39.96ZM181.547 35.67L182.285 36.3457L182.291 36.3382L182.298 36.3306L181.547 35.67ZM185.287 29.4L186.224 29.7511L186.227 29.7417L185.287 29.4ZM225.327 2.99999L226.134 3.59036L227.298 1.99999H225.327V2.99999ZM214.437 2.99999V1.99999H213.93L213.63 2.40963L214.437 2.99999ZM158.117 80L157.31 79.4096L156.147 81H158.117V80ZM169.007 80V81H169.515L169.814 80.5904L169.007 80ZM231.817 53.6L230.878 53.9418L230.881 53.9511L231.817 53.6ZM228.077 47.33L227.312 47.9732L227.326 47.9898L227.34 48.0057L228.077 47.33ZM222.467 43.04L222.89 42.1338L222.467 43.04ZM207.617 43.15L208.04 44.0563L208.053 44.0502L207.617 43.15ZM201.897 47.44L202.635 48.1157L202.641 48.1082L202.648 48.1006L201.897 47.44ZM198.157 53.71L199.094 54.0611L199.097 54.0517L198.157 53.71ZM198.157 68.89L197.217 69.2318L197.221 69.2411L198.157 68.89ZM201.787 75.16L201.022 75.8032L201.036 75.8198L201.05 75.8357L201.787 75.16ZM207.507 79.34L207.084 80.2462L207.507 79.34ZM222.247 79.34L222.67 80.2463L222.683 80.2402L222.247 79.34ZM228.077 75.05L228.814 75.7257L228.821 75.7182L228.828 75.7106L228.077 75.05ZM231.817 68.78L232.754 69.1311L232.757 69.1217L231.817 68.78ZM174.617 29.84L175.441 30.4077L175.445 30.4012L175.449 30.3947L174.617 29.84ZM162.407 29.84L161.588 30.4135L161.599 30.4291L161.611 30.4444L162.407 29.84ZM162.297 13.89L163.121 14.4577L163.125 14.4513L163.129 14.4447L162.297 13.89ZM174.397 13.89L173.578 14.4635L173.589 14.4791L173.601 14.4944L174.397 13.89ZM221.147 69.22L221.971 69.7877L221.975 69.7812L221.979 69.7747L221.147 69.22ZM208.937 69.22L208.118 69.7935L208.129 69.8091L208.141 69.8244L208.937 69.22ZM208.827 53.27L209.651 53.8377L209.655 53.8312L209.659 53.8247L208.827 53.27ZM220.927 53.27L220.108 53.8435L220.119 53.8591L220.131 53.8744L220.927 53.27ZM187.607 21.7C187.607 18.9466 187.148 16.3337 186.224 13.8689L184.351 14.5711C185.187 16.7996 185.607 19.1734 185.607 21.7H187.607ZM186.227 13.8783C185.306 11.3445 183.993 9.13859 182.285 7.27427L180.81 8.62572C182.328 10.2814 183.509 12.2555 184.348 14.5617L186.227 13.8783ZM182.313 7.3068C180.678 5.36027 178.69 3.84123 176.36 2.75382L175.514 4.56618C177.584 5.5321 179.337 6.87306 180.782 8.59319L182.313 7.3068ZM176.36 2.75382C174.013 1.65844 171.41 1.12 168.567 1.12V3.12C171.152 3.12 173.462 3.60823 175.514 4.56618L176.36 2.75382ZM168.567 1.12C165.715 1.12 163.071 1.69932 160.652 2.86984L161.523 4.67016C163.65 3.64068 165.993 3.12 168.567 3.12V1.12ZM160.664 2.86381C158.339 3.94919 156.321 5.46307 154.617 7.39937L156.118 8.72062C157.641 6.99025 159.436 5.64414 161.51 4.67618L160.664 2.86381ZM154.63 7.38427C152.921 9.24859 151.609 11.4545 150.688 13.9883L152.567 14.6717C153.406 12.3655 154.587 10.3914 156.104 8.73572L154.63 7.38427ZM150.691 13.9789C149.766 16.4468 149.307 19.0967 149.307 21.92H151.307C151.307 19.3166 151.729 16.9066 152.564 14.6811L150.691 13.9789ZM149.307 21.92C149.307 24.6736 149.767 27.3194 150.688 29.8517L152.567 29.1683C151.728 26.8606 151.307 24.4464 151.307 21.92H149.307ZM150.691 29.8611C151.609 32.3091 152.875 34.4989 154.492 36.4232L156.023 35.1368C154.559 33.3944 153.406 31.4042 152.564 29.1589L150.691 29.8611ZM154.52 36.4557C156.224 38.3141 158.238 39.785 160.554 40.8662L161.4 39.0538C159.317 38.0817 157.518 36.7659 155.994 35.1043L154.52 36.4557ZM160.554 40.8662C162.902 41.9616 165.505 42.5 168.347 42.5V40.5C165.763 40.5 163.453 40.0118 161.4 39.0538L160.554 40.8662ZM168.347 42.5C171.189 42.5 173.793 41.9616 176.14 40.8662L175.294 39.0538C173.242 40.0118 170.932 40.5 168.347 40.5V42.5ZM176.153 40.8602C178.533 39.7083 180.581 38.2042 182.285 36.3457L180.81 34.9943C179.287 36.6558 177.448 38.0117 175.282 39.0598L176.153 40.8602ZM182.298 36.3306C183.994 34.4038 185.302 32.2083 186.224 29.7511L184.351 29.0489C183.512 31.285 182.328 33.2695 180.797 35.0094L182.298 36.3306ZM186.227 29.7417C187.149 27.2064 187.607 24.5236 187.607 21.7H185.607C185.607 24.3031 185.186 26.7536 184.348 29.0583L186.227 29.7417ZM225.327 1.99999H214.437V3.99999H225.327V1.99999ZM213.63 2.40963L157.31 79.4096L158.924 80.5904L215.244 3.59036L213.63 2.40963ZM158.117 81H169.007V79H158.117V81ZM169.814 80.5904L226.134 3.59036L224.52 2.40963L168.2 79.4096L169.814 80.5904ZM234.137 61.08C234.137 58.3266 233.678 55.7137 232.754 53.2489L230.881 53.9511C231.717 56.1796 232.137 58.5534 232.137 61.08H234.137ZM232.757 53.2583C231.836 50.7245 230.523 48.5186 228.814 46.6543L227.34 48.0057C228.858 49.6614 230.039 51.6355 230.878 53.9417L232.757 53.2583ZM228.843 46.6868C227.208 44.7403 225.22 43.2212 222.89 42.1338L222.044 43.9462C224.114 44.9121 225.867 46.2531 227.312 47.9732L228.843 46.6868ZM222.89 42.1338C220.543 41.0384 217.94 40.5 215.097 40.5V42.5C217.682 42.5 219.992 42.9882 222.044 43.9462L222.89 42.1338ZM215.097 40.5C212.245 40.5 209.601 41.0793 207.182 42.2498L208.053 44.0502C210.18 43.0207 212.523 42.5 215.097 42.5V40.5ZM207.194 42.2438C204.869 43.3292 202.851 44.8431 201.147 46.7794L202.648 48.1006C204.171 46.3703 205.966 45.0241 208.04 44.0562L207.194 42.2438ZM201.16 46.7643C199.451 48.6286 198.139 50.8345 197.218 53.3683L199.097 54.0517C199.936 51.7455 201.117 49.7714 202.635 48.1157L201.16 46.7643ZM197.221 53.3589C196.296 55.8268 195.837 58.4767 195.837 61.3H197.837C197.837 58.6966 198.259 56.2866 199.094 54.0611L197.221 53.3589ZM195.837 61.3C195.837 64.0536 196.297 66.6994 197.218 69.2317L199.097 68.5483C198.258 66.2406 197.837 63.8264 197.837 61.3H195.837ZM197.221 69.2411C198.139 71.6891 199.405 73.8789 201.022 75.8032L202.553 74.5168C201.089 72.7745 199.936 70.7842 199.094 68.5389L197.221 69.2411ZM201.05 75.8357C202.754 77.6941 204.768 79.165 207.084 80.2462L207.93 78.4338C205.847 77.4617 204.048 76.1459 202.525 74.4843L201.05 75.8357ZM207.084 80.2462C209.432 81.3416 212.035 81.88 214.877 81.88V79.88C212.293 79.88 209.983 79.3918 207.93 78.4338L207.084 80.2462ZM214.877 81.88C217.72 81.88 220.323 81.3416 222.67 80.2462L221.824 78.4338C219.772 79.3918 217.462 79.88 214.877 79.88V81.88ZM222.683 80.2402C225.063 79.0883 227.111 77.5842 228.814 75.7257L227.34 74.3743C225.817 76.0358 223.978 77.3917 221.812 78.4398L222.683 80.2402ZM228.828 75.7106C230.524 73.7838 231.832 71.5883 232.754 69.1311L230.881 68.4289C230.042 70.665 228.858 72.6495 227.327 74.3894L228.828 75.7106ZM232.757 69.1217C233.679 66.5864 234.137 63.9036 234.137 61.08H232.137C232.137 63.6831 231.716 66.1336 230.878 68.4383L232.757 69.1217ZM175.817 21.92C175.817 24.8359 175.125 27.2753 173.785 29.2853L175.449 30.3947C177.043 28.0047 177.817 25.1641 177.817 21.92H175.817ZM173.794 29.2723C172.513 31.1304 170.803 32.03 168.567 32.03V34.03C171.465 34.03 173.789 32.8029 175.441 30.4077L173.794 29.2723ZM168.567 32.03C166.412 32.03 164.644 31.1335 163.204 29.2356L161.611 30.4444C163.398 32.7999 165.736 34.03 168.567 34.03V32.03ZM163.227 29.2665C161.826 27.2661 161.097 24.7637 161.097 21.7H159.097C159.097 25.0897 159.908 28.0139 161.588 30.4135L163.227 29.2665ZM161.097 21.7C161.097 18.783 161.79 16.3875 163.121 14.4577L161.474 13.3223C159.872 15.6459 159.097 18.457 159.097 21.7H161.097ZM163.129 14.4447C164.417 12.5128 166.127 11.59 168.347 11.59V9.59C165.434 9.59 163.111 10.8672 161.465 13.3353L163.129 14.4447ZM168.347 11.59C170.486 11.59 172.208 12.5066 173.578 14.4635L175.217 13.3165C173.506 10.8734 171.195 9.59 168.347 9.59V11.59ZM173.601 14.4944C175.056 16.4132 175.817 18.8648 175.817 21.92H177.817C177.817 18.5219 176.965 15.6201 175.194 13.2856L173.601 14.4944ZM222.347 61.3C222.347 64.2159 221.655 66.6553 220.315 68.6653L221.979 69.7747C223.573 67.3847 224.347 64.5441 224.347 61.3H222.347ZM220.324 68.6523C219.043 70.5104 217.333 71.41 215.097 71.41V73.41C217.995 73.41 220.319 72.1829 221.971 69.7877L220.324 68.6523ZM215.097 71.41C212.942 71.41 211.174 70.5135 209.734 68.6156L208.141 69.8244C209.928 72.1799 212.266 73.41 215.097 73.41V71.41ZM209.757 68.6465C208.356 66.6461 207.627 64.1437 207.627 61.08H205.627C205.627 64.4697 206.438 67.3939 208.118 69.7935L209.757 68.6465ZM207.627 61.08C207.627 58.163 208.32 55.7675 209.651 53.8377L208.004 52.7023C206.402 55.0259 205.627 57.837 205.627 61.08H207.627ZM209.659 53.8247C210.947 51.8928 212.657 50.97 214.877 50.97V48.97C211.964 48.97 209.641 50.2472 207.995 52.7153L209.659 53.8247ZM214.877 50.97C217.016 50.97 218.738 51.8866 220.108 53.8435L221.747 52.6965C220.036 50.2534 217.725 48.97 214.877 48.97V50.97ZM220.131 53.8744C221.586 55.7932 222.347 58.2448 222.347 61.3H224.347C224.347 57.9019 223.495 55.0001 221.724 52.6656L220.131 53.8744ZM81.04 130.99L81.9656 130.611L81.04 130.99ZM72.79 118.34L72.0756 119.04L72.79 118.34ZM60.14 109.87L59.7427 110.788L59.7544 110.793L60.14 109.87ZM27.58 109.87L27.9772 110.788L27.58 109.87ZM14.82 118.56L15.5271 119.267L15.5342 119.26L14.82 118.56ZM6.46 131.21L5.53445 130.831L6.46 131.21ZM6.46 162.01L5.53445 162.389L6.46 162.01ZM14.71 174.66L15.4244 173.96L14.71 174.66ZM27.36 183.24L26.9627 184.158L26.9744 184.163L27.36 183.24ZM59.92 183.13L60.3172 184.048L59.92 183.13ZM72.68 174.55L73.3871 175.257L73.3942 175.25L72.68 174.55ZM81.04 161.79L81.9656 162.169L81.04 161.79ZM67.84 157.28L66.9087 156.916L66.9045 156.927L67.84 157.28ZM62.56 165.97L63.2888 166.655L63.2939 166.649L63.299 166.644L62.56 165.97ZM54.31 171.8L54.7142 172.715L54.7238 172.71L54.31 171.8ZM33.3 171.69L33.7138 170.78L33.3 171.69ZM24.94 165.75L24.201 166.424L24.2064 166.43L24.2118 166.435L24.94 165.75ZM19.55 157.06L18.612 157.407L18.6166 157.419L18.6215 157.431L19.55 157.06ZM19.55 135.83L18.6187 135.466L18.6145 135.477L19.55 135.83ZM24.94 127.14L25.6688 127.825L25.6739 127.819L25.679 127.814L24.94 127.14ZM33.08 121.31L33.4842 122.225L33.4938 122.22L33.08 121.31ZM54.2 121.31L54.6138 120.4L54.2 121.31ZM62.45 127.25L61.711 127.924L61.7164 127.93L61.7218 127.935L62.45 127.25ZM67.84 136.05L66.902 136.397L66.9066 136.409L66.9115 136.421L67.84 136.05ZM85.01 146.39C85.01 140.838 83.9966 135.576 81.9656 130.611L80.1145 131.369C82.0434 136.084 83.01 141.088 83.01 146.39H85.01ZM81.9656 130.611C79.9386 125.656 77.1184 121.33 73.5044 117.64L72.0756 119.04C75.5016 122.537 78.1814 126.643 80.1145 131.369L81.9656 130.611ZM73.5044 117.64C69.8854 113.946 65.555 111.049 60.5256 108.947L59.7544 110.793C64.5517 112.798 68.6546 115.548 72.0756 119.04L73.5044 117.64ZM60.5372 108.952C55.4854 106.766 49.9216 105.68 43.86 105.68V107.68C49.6784 107.68 54.9679 108.721 59.7428 110.788L60.5372 108.952ZM43.86 105.68C37.7984 105.68 32.2346 106.766 27.1828 108.952L27.9772 110.788C32.7521 108.721 38.0416 107.68 43.86 107.68V105.68ZM27.1828 108.952C22.1559 111.128 17.7936 114.097 14.1058 117.86L15.5342 119.26C19.0331 115.69 23.1775 112.865 27.9772 110.788L27.1828 108.952ZM14.1129 117.853C10.4229 121.543 7.56324 125.872 5.53445 130.831L7.38555 131.589C9.31676 126.868 12.0304 122.764 15.5271 119.267L14.1129 117.853ZM5.53445 130.831C3.50343 135.796 2.49 141.058 2.49 146.61H4.49C4.49 141.308 5.45657 136.304 7.38555 131.589L5.53445 130.831ZM2.49 146.61C2.49 152.162 3.50343 157.424 5.53445 162.389L7.38555 161.631C5.45657 156.916 4.49 151.912 4.49 146.61H2.49ZM5.53445 162.389C7.56145 167.344 10.3816 171.67 13.9956 175.36L15.4244 173.96C11.9984 170.463 9.31855 166.356 7.38555 161.631L5.53445 162.389ZM13.9956 175.36C17.612 179.051 21.9384 181.983 26.9628 184.158L27.7572 182.322C22.955 180.244 18.848 177.455 15.4244 173.96L13.9956 175.36ZM26.9744 184.163C32.0232 186.273 37.5829 187.32 43.64 187.32V185.32C37.8171 185.32 32.5234 184.314 27.7456 182.317L26.9744 184.163ZM43.64 187.32C49.7016 187.32 55.2654 186.234 60.3172 184.048L59.5228 182.212C54.7479 184.279 49.4584 185.32 43.64 185.32V187.32ZM60.3172 184.048C65.3399 181.874 69.7 178.944 73.3871 175.257L71.9729 173.843C68.4734 177.342 64.3268 180.133 59.5228 182.212L60.3172 184.048ZM73.3942 175.25C77.0798 171.489 79.9375 167.126 81.9656 162.169L80.1145 161.411C78.1825 166.134 75.4669 170.278 71.9658 173.85L73.3942 175.25ZM81.9656 162.169C83.9966 157.204 85.01 151.942 85.01 146.39H83.01C83.01 151.692 82.0434 156.696 80.1145 161.411L81.9656 162.169ZM68.82 146.61C68.82 150.229 68.1818 153.662 66.9088 156.916L68.7712 157.644C70.1382 154.151 70.82 150.471 70.82 146.61H68.82ZM66.9045 156.927C65.7005 160.114 64.0054 162.901 61.821 165.296L63.299 166.644C65.6613 164.053 67.4862 161.046 68.7755 157.633L66.9045 156.927ZM61.8312 165.285C59.653 167.604 57.0122 169.473 53.8962 170.89L54.7238 172.71C58.0611 171.193 60.9203 169.176 63.2888 166.655L61.8312 165.285ZM53.9058 170.885C50.8927 172.217 47.549 172.89 43.86 172.89V174.89C47.7977 174.89 51.4206 174.17 54.7142 172.715L53.9058 170.885ZM43.86 172.89C40.1784 172.89 36.8009 172.183 33.7138 170.78L32.8862 172.6C36.2525 174.13 39.9149 174.89 43.86 174.89V172.89ZM33.7138 170.78C30.6013 169.365 27.9226 167.46 25.6682 165.065L24.2118 166.435C26.6508 169.027 29.5453 171.082 32.8862 172.6L33.7138 170.78ZM25.679 165.076C23.4907 162.676 21.7563 159.883 20.4785 156.689L18.6215 157.431C19.9837 160.837 21.8427 163.837 24.201 166.424L25.679 165.076ZM20.488 156.713C19.284 153.455 18.68 150.016 18.68 146.39H16.68C16.68 150.244 17.3227 153.918 18.612 157.407L20.488 156.713ZM18.68 146.39C18.68 142.763 19.284 139.364 20.4855 136.183L18.6145 135.477C17.3227 138.896 16.68 142.537 16.68 146.39H18.68ZM20.4812 136.194C21.759 132.929 23.4904 130.144 25.6688 127.825L24.2112 126.455C21.8429 128.976 19.981 131.984 18.6188 135.466L20.4812 136.194ZM25.679 127.814C27.8566 125.425 30.4551 123.563 33.4842 122.225L32.6758 120.395C29.3982 121.844 26.5701 123.868 24.201 126.466L25.679 127.814ZM33.4938 122.22C36.5809 120.817 39.9584 120.11 43.64 120.11V118.11C39.6949 118.11 36.0325 118.869 32.6662 120.4L33.4938 122.22ZM43.64 120.11C47.3216 120.11 50.6991 120.817 53.7862 122.22L54.6138 120.4C51.2475 118.869 47.5851 118.11 43.64 118.11V120.11ZM53.7862 122.22C56.8959 123.634 59.5335 125.536 61.711 127.924L63.189 126.576C60.8198 123.978 57.9574 121.919 54.6138 120.4L53.7862 122.22ZM61.7218 127.935C63.9719 130.326 65.6995 133.143 66.902 136.397L68.778 135.703C67.4872 132.211 65.6214 129.161 63.1782 126.565L61.7218 127.935ZM66.9115 136.421C68.1818 139.597 68.82 142.99 68.82 146.61H70.82C70.82 142.75 70.1382 139.103 68.7685 135.679L66.9115 136.421ZM157.667 108H158.667V107H157.667V108ZM100.357 108V107H99.357V108H100.357ZM100.357 185H99.357V186H100.357V185ZM113.887 185V186H114.887V185H113.887ZM113.887 153.65V152.65H112.887V153.65H113.887ZM152.717 153.65V154.65H153.717V153.65H152.717ZM152.717 141.33H153.717V140.33H152.717V141.33ZM113.887 141.33H112.887V142.33H113.887V141.33ZM113.887 120.32V119.32H112.887V120.32H113.887ZM157.667 120.32V121.32H158.667V120.32H157.667ZM157.667 107H100.357V109H157.667V107ZM99.357 108V185H101.357V108H99.357ZM100.357 186H113.887V184H100.357V186ZM114.887 185V153.65H112.887V185H114.887ZM113.887 154.65H152.717V152.65H113.887V154.65ZM153.717 153.65V141.33H151.717V153.65H153.717ZM152.717 140.33H113.887V142.33H152.717V140.33ZM114.887 141.33V120.32H112.887V141.33H114.887ZM113.887 121.32H157.667V119.32H113.887V121.32ZM158.667 120.32V108H156.667V120.32H158.667ZM229.855 108H230.855V107H229.855V108ZM172.545 108V107H171.545V108H172.545ZM172.545 185H171.545V186H172.545V185ZM186.075 185V186H187.075V185H186.075ZM186.075 153.65V152.65H185.075V153.65H186.075ZM224.905 153.65V154.65H225.905V153.65H224.905ZM224.905 141.33H225.905V140.33H224.905V141.33ZM186.075 141.33H185.075V142.33H186.075V141.33ZM186.075 120.32V119.32H185.075V120.32H186.075ZM229.855 120.32V121.32H230.855V120.32H229.855ZM229.855 107H172.545V109H229.855V107ZM171.545 108V185H173.545V108H171.545ZM172.545 186H186.075V184H172.545V186ZM187.075 185V153.65H185.075V185H187.075ZM186.075 154.65H224.905V152.65H186.075V154.65ZM225.905 153.65V141.33H223.905V153.65H225.905ZM224.905 140.33H186.075V142.33H224.905V140.33ZM187.075 141.33V120.32H185.075V141.33H187.075ZM186.075 121.32H229.855V119.32H186.075V121.32ZM230.855 120.32V108H228.855V120.32H230.855Z" fill="white"/>
</svg>
