<svg width="324" height="188" viewBox="0 0 324 188" fill="none" xmlns="http://www.w3.org/2000/svg">
<path d="M60.44 17.3L59.5209 17.6939L59.5266 17.7073L59.5327 17.7205L60.44 17.3ZM54.61 9.59999L53.9611 10.3608L53.973 10.371L53.9853 10.3809L54.61 9.59999ZM45.48 4.76L45.1638 5.70868L45.1755 5.71259L45.1873 5.7162L45.48 4.76ZM4.89 2.99999V1.99999H3.89V2.99999H4.89ZM4.89 80H3.89V81H4.89V80ZM13.58 80V81H14.58V80H13.58ZM13.58 52.83V51.83H12.58V52.83H13.58ZM43.94 51.29L44.2096 52.253L44.2185 52.2505L44.2274 52.2478L43.94 51.29ZM53.51 46.45L52.9033 45.655L52.8931 45.6629L53.51 46.45ZM60.11 38.53L59.2197 38.0745L60.11 38.53ZM52.19 34.9L51.2895 34.4652L51.2862 34.472L51.283 34.4789L52.19 34.9ZM47.9 40.29L48.5247 41.0709L48.5283 41.0679L47.9 40.29ZM41.19 43.7L40.8978 42.7436L40.8902 42.746L41.19 43.7ZM13.58 44.91H12.58V45.91H13.58V44.91ZM13.58 11.03V10.03H12.58V11.03H13.58ZM48.01 15.32L47.4026 16.1144L47.4112 16.121L47.42 16.1274L48.01 15.32ZM63.53 27.53C63.53 23.5933 62.8103 20.0364 61.3473 16.8795L59.5327 17.7205C60.8564 20.5769 61.53 23.8401 61.53 27.53H63.53ZM61.3591 16.9061C59.9756 13.6779 57.9324 10.9773 55.2347 8.81913L53.9853 10.3809C56.4209 12.3293 58.2644 14.7621 59.5209 17.6939L61.3591 16.9061ZM55.2589 8.83916C52.6473 6.61158 49.4778 4.93801 45.7727 3.8038L45.1873 5.7162C48.6689 6.78198 51.586 8.33508 53.9611 10.3608L55.2589 8.83916ZM45.7962 3.81132C42.1589 2.59888 38.1267 1.99999 33.71 1.99999V3.99999C37.9466 3.99999 41.7611 4.57445 45.1638 5.70868L45.7962 3.81132ZM33.71 1.99999H4.89V3.99999H33.71V1.99999ZM3.89 2.99999V80H5.89V2.99999H3.89ZM4.89 81H13.58V79H4.89V81ZM14.58 80V52.83H12.58V80H14.58ZM13.58 53.83H32.28V51.83H13.58V53.83ZM32.28 53.83C36.4707 53.83 40.4486 53.3061 44.2096 52.253L43.6704 50.327C40.0981 51.3273 36.3026 51.83 32.28 51.83V53.83ZM44.2274 52.2478C48.0004 51.1159 51.305 49.4488 54.1269 47.2371L52.8931 45.6629C50.2883 47.7046 47.213 49.2641 43.6527 50.3322L44.2274 52.2478ZM54.1167 47.2449C57.0233 45.0267 59.3197 42.2703 61.0003 38.9855L59.2197 38.0745C57.6737 41.0964 55.57 43.6199 52.9033 45.655L54.1167 47.2449ZM61.0003 38.9855C62.6976 35.6679 63.53 31.84 63.53 27.53H61.53C61.53 31.58 60.749 35.0855 59.2197 38.0745L61.0003 38.9855ZM52.73 27.86C52.73 30.2894 52.2451 32.4856 51.2895 34.4652L53.0906 35.3347C54.1882 33.061 54.73 30.5639 54.73 27.86H52.73ZM51.283 34.4789C50.3993 36.3823 49.0694 38.06 47.2717 39.5121L48.5283 41.0679C50.5439 39.44 52.0741 37.5243 53.097 35.3211L51.283 34.4789ZM47.2753 39.5091C45.5564 40.8842 43.4377 41.9675 40.8978 42.7436L41.4822 44.6563C44.2223 43.8191 46.5769 42.6291 48.5247 41.0709L47.2753 39.5091ZM40.8902 42.746C38.4356 43.5175 35.6787 43.91 32.61 43.91V45.91C35.848 45.91 38.8111 45.4959 41.4898 44.654L40.8902 42.746ZM32.61 43.91H13.58V45.91H32.61V43.91ZM14.58 44.91V11.03H12.58V44.91H14.58ZM13.58 12.03H33.05V10.03H13.58V12.03ZM33.05 12.03C39.1347 12.03 43.886 13.4252 47.4026 16.1144L48.6175 14.5256C44.654 11.4948 39.4319 10.03 33.05 10.03V12.03ZM47.42 16.1274C50.9272 18.6903 52.73 22.5406 52.73 27.86H54.73C54.73 22.0328 52.7195 17.523 48.6 14.5126L47.42 16.1274ZM150.637 26.21L149.701 26.5642L149.705 26.5728L149.708 26.5814L150.637 26.21ZM142.717 13.56L141.988 14.2449L141.995 14.2522L142.717 13.56ZM130.287 4.87L129.879 5.78324L129.884 5.78552L130.287 4.87ZM98.2766 4.98L98.6789 5.89559L98.6904 5.89036L98.2766 4.98ZM77.8166 26.43L78.7451 26.8014L78.747 26.7965L77.8166 26.43ZM77.7066 56.9L76.7714 57.2542L76.7747 57.2628L76.7781 57.2714L77.7066 56.9ZM85.7366 69.55L85.0079 70.2349L85.0149 70.2422L85.7366 69.55ZM98.0566 78.13L97.6491 79.0432L97.6543 79.0455L98.0566 78.13ZM130.177 78.13L130.579 79.0456L130.59 79.0404L130.177 78.13ZM142.607 69.33L141.878 68.6451L142.607 69.33ZM150.637 56.68L151.565 57.0514L151.567 57.0465L150.637 56.68ZM142.167 54.04L141.237 53.6716L141.233 53.681L142.167 54.04ZM136.007 64.05L135.272 63.3717L136.007 64.05ZM126.437 70.87L126.839 71.7854L126.848 71.7816L126.437 70.87ZM102.127 70.76L101.709 71.6685L101.715 71.6716L102.127 70.76ZM92.5566 63.94L93.282 63.2517L92.5566 63.94ZM86.1766 53.82L85.241 54.1731L85.2439 54.1807L85.2469 54.1884L86.1766 53.82ZM86.1766 29.07L85.2468 28.7016L85.2432 28.711L86.1766 29.07ZM92.4466 18.95L93.1814 19.6283L92.4466 18.95ZM101.907 12.24L102.309 13.1553L102.318 13.1516L101.907 12.24ZM126.217 12.24L125.799 13.1485L125.805 13.1516L126.217 12.24ZM135.897 19.06L135.171 19.7483L135.897 19.06ZM142.167 29.18L141.231 29.5331L141.234 29.5407L141.237 29.5484L142.167 29.18ZM154.497 41.39C154.497 35.915 153.521 30.7284 151.565 25.8386L149.708 26.5814C151.566 31.2249 152.497 36.1584 152.497 41.39H154.497ZM151.572 25.8558C149.693 20.895 146.982 16.5621 143.438 12.8678L141.995 14.2522C145.345 17.7446 147.914 21.845 149.701 26.5642L151.572 25.8558ZM143.445 12.8751C139.902 9.10545 135.646 6.13249 130.689 3.95448L129.884 5.78552C134.607 7.86084 138.638 10.6812 141.988 14.2449L143.445 12.8751ZM130.694 3.95677C125.784 1.76619 120.326 0.679998 114.337 0.679998V2.68C120.08 2.68 125.256 3.72047 129.879 5.78323L130.694 3.95677ZM114.337 0.679998C108.342 0.679998 102.846 1.80469 97.8628 4.06963L98.6904 5.89036C103.388 3.7553 108.598 2.68 114.337 2.68V0.679998ZM97.8743 4.06448C92.9174 6.24249 88.6614 9.21545 85.1179 12.9851L86.5752 14.3549C89.9251 10.7912 93.9557 7.97084 98.6788 5.89552L97.8743 4.06448ZM85.1179 12.9851C81.5815 16.7473 78.8377 21.1096 76.8862 26.0635L78.747 26.7965C80.6088 22.0704 83.2183 17.9261 86.5752 14.3549L85.1179 12.9851ZM76.8881 26.0586C74.9322 30.9484 73.9566 36.135 73.9566 41.61H75.9566C75.9566 36.3784 76.8876 31.4449 78.745 26.8014L76.8881 26.0586ZM73.9566 41.61C73.9566 47.0801 74.8937 52.2972 76.7714 57.2542L78.6417 56.5458C76.8527 51.8228 75.9566 46.8465 75.9566 41.61H73.9566ZM76.7781 57.2714C78.7302 62.1517 81.4739 66.4753 85.0079 70.2349L86.4652 68.8651C83.1059 65.2914 80.4962 61.1816 78.635 56.5286L76.7781 57.2714ZM85.0149 70.2422C88.5553 73.9333 92.7702 76.8665 97.6491 79.0432L98.464 77.2168C93.8096 75.1402 89.8111 72.3533 86.4582 68.8578L85.0149 70.2422ZM97.6543 79.0455C102.634 81.2337 108.127 82.32 114.117 82.32V80.32C108.373 80.32 103.159 79.2796 98.4588 77.2145L97.6543 79.0455ZM114.117 82.32C120.106 82.32 125.599 81.2337 130.579 79.0455L129.774 77.2145C125.074 79.2796 119.86 80.32 114.117 80.32V82.32ZM130.59 79.0404C135.542 76.7895 139.794 73.7818 143.335 70.0149L141.878 68.6451C138.525 72.2115 134.491 75.0705 129.763 77.2196L130.59 79.0404ZM143.335 70.0149C146.869 66.2553 149.613 61.9317 151.565 57.0514L149.708 56.3086C147.847 60.9616 145.237 65.0714 141.878 68.6451L143.335 70.0149ZM151.567 57.0465C153.521 52.0864 154.497 46.8651 154.497 41.39H152.497C152.497 46.6216 151.566 51.5936 149.706 56.3135L151.567 57.0465ZM143.477 41.61C143.477 45.8906 142.728 49.9083 141.237 53.6716L143.096 54.4084C144.685 50.3984 145.477 46.1294 145.477 41.61H143.477ZM141.233 53.681C139.81 57.3823 137.822 60.6092 135.272 63.3717L136.741 64.7283C139.471 61.7708 141.59 58.3244 143.1 54.399L141.233 53.681ZM135.272 63.3717C132.728 66.1277 129.65 68.3239 126.025 69.9584L126.848 71.7816C130.703 70.0427 134.005 67.6923 136.741 64.7283L135.272 63.3717ZM126.034 69.9547C122.506 71.5069 118.612 72.29 114.337 72.29V74.29C118.861 74.29 123.034 73.4598 126.839 71.7853L126.034 69.9547ZM114.337 72.29C110.068 72.29 106.139 71.4727 102.538 69.8484L101.715 71.6716C105.594 73.4207 109.805 74.29 114.337 74.29V72.29ZM102.544 69.8515C98.9906 68.2167 95.9057 66.0172 93.282 63.2517L91.8311 64.6283C94.6341 67.5828 97.9292 69.9299 101.709 71.6685L102.544 69.8515ZM93.282 63.2517C90.6618 60.4899 88.6021 57.2269 87.1062 53.4516L85.2469 54.1884C86.831 58.1865 89.0247 61.6701 91.8311 64.6283L93.282 63.2517ZM87.1122 53.4669C85.6906 49.6997 84.9766 45.6766 84.9766 41.39H82.9766C82.9766 45.9034 83.7292 50.167 85.241 54.1731L87.1122 53.4669ZM84.9766 41.39C84.9766 37.1032 85.6906 33.1192 87.1099 29.429L85.2432 28.711C83.7292 32.6475 82.9766 36.8768 82.9766 41.39H84.9766ZM87.1062 29.4384C88.6043 25.6576 90.6309 22.3913 93.1814 19.6283L91.7118 18.2717C88.9823 21.2287 86.8288 24.7091 85.2469 28.7016L87.1062 29.4384ZM93.1814 19.6283C95.7254 16.8722 98.7647 14.7149 102.309 13.1553L101.504 11.3247C97.7151 12.9917 94.4477 15.3077 91.7118 18.2717L93.1814 19.6283ZM102.318 13.1516C105.919 11.5273 109.848 10.71 114.117 10.71V8.70999C109.585 8.70999 105.374 9.57932 101.495 11.3284L102.318 13.1516ZM114.117 10.71C118.385 10.71 122.275 11.5274 125.799 13.1485L126.634 11.3315C122.825 9.57927 118.648 8.70999 114.117 8.70999V10.71ZM125.805 13.1516C129.432 14.7871 132.551 16.9862 135.171 19.7483L136.622 18.3717C133.816 15.4138 130.481 13.0662 126.628 11.3284L125.805 13.1516ZM135.171 19.7483C137.788 22.5065 139.809 25.7642 141.231 29.5331L143.102 28.8269C141.591 24.8225 139.432 21.3335 136.622 18.3717L135.171 19.7483ZM141.237 29.5484C142.728 33.3117 143.477 37.3294 143.477 41.61H145.477C145.477 37.0906 144.685 32.8216 143.096 28.8116L141.237 29.5484ZM227.374 17.3L226.454 17.6939L226.46 17.7073L226.466 17.7205L227.374 17.3ZM221.544 9.59999L220.895 10.3608L220.907 10.371L220.919 10.3809L221.544 9.59999ZM212.414 4.76L212.097 5.70868L212.109 5.71259L212.121 5.7162L212.414 4.76ZM171.824 2.99999V1.99999H170.824V2.99999H171.824ZM171.824 80H170.824V81H171.824V80ZM180.514 80V81H181.514V80H180.514ZM180.514 52.83V51.83H179.514V52.83H180.514ZM210.874 51.29L211.143 52.253L211.152 52.2505L211.161 52.2478L210.874 51.29ZM220.444 46.45L219.837 45.655L219.827 45.6629L220.444 46.45ZM227.044 38.53L226.153 38.0745L227.044 38.53ZM219.124 34.9L218.223 34.4652L218.22 34.472L218.217 34.4789L219.124 34.9ZM214.834 40.29L215.458 41.0709L215.462 41.0679L214.834 40.29ZM208.124 43.7L207.831 42.7436L207.824 42.746L208.124 43.7ZM180.514 44.91H179.514V45.91H180.514V44.91ZM180.514 11.03V10.03H179.514V11.03H180.514ZM214.944 15.32L214.336 16.1144L214.345 16.121L214.354 16.1274L214.944 15.32ZM230.464 27.53C230.464 23.5933 229.744 20.0364 228.281 16.8795L226.466 17.7205C227.79 20.5769 228.464 23.8401 228.464 27.53H230.464ZM228.293 16.9061C226.909 13.6779 224.866 10.9773 222.168 8.81913L220.919 10.3809C223.354 12.3293 225.198 14.7621 226.454 17.6939L228.293 16.9061ZM222.193 8.83916C219.581 6.61158 216.411 4.93801 212.706 3.8038L212.121 5.7162C215.602 6.78198 218.52 8.33508 220.895 10.3608L222.193 8.83916ZM212.73 3.81132C209.093 2.59888 205.06 1.99999 200.644 1.99999V3.99999C204.88 3.99999 208.695 4.57445 212.097 5.70868L212.73 3.81132ZM200.644 1.99999H171.824V3.99999H200.644V1.99999ZM170.824 2.99999V80H172.824V2.99999H170.824ZM171.824 81H180.514V79H171.824V81ZM181.514 80V52.83H179.514V80H181.514ZM180.514 53.83H199.214V51.83H180.514V53.83ZM199.214 53.83C203.404 53.83 207.382 53.3061 211.143 52.253L210.604 50.327C207.032 51.3273 203.236 51.83 199.214 51.83V53.83ZM211.161 52.2478C214.934 51.1159 218.239 49.4488 221.06 47.2371L219.827 45.6629C217.222 47.7046 214.147 49.2641 210.586 50.3322L211.161 52.2478ZM221.05 47.2449C223.957 45.0267 226.253 42.2703 227.934 38.9855L226.153 38.0745C224.607 41.0964 222.504 43.6199 219.837 45.655L221.05 47.2449ZM227.934 38.9855C229.631 35.6679 230.464 31.84 230.464 27.53H228.464C228.464 31.58 227.683 35.0855 226.153 38.0745L227.934 38.9855ZM219.664 27.86C219.664 30.2894 219.179 32.4856 218.223 34.4652L220.024 35.3347C221.122 33.061 221.664 30.5639 221.664 27.86H219.664ZM218.217 34.4789C217.333 36.3823 216.003 38.06 214.205 39.5121L215.462 41.0679C217.478 39.44 219.008 37.5243 220.031 35.3211L218.217 34.4789ZM214.209 39.5091C212.49 40.8842 210.371 41.9675 207.831 42.7436L208.416 44.6563C211.156 43.8191 213.51 42.6291 215.458 41.0709L214.209 39.5091ZM207.824 42.746C205.369 43.5175 202.612 43.91 199.544 43.91V45.91C202.782 45.91 205.745 45.4959 208.423 44.654L207.824 42.746ZM199.544 43.91H180.514V45.91H199.544V43.91ZM181.514 44.91V11.03H179.514V44.91H181.514ZM180.514 12.03H199.984V10.03H180.514V12.03ZM199.984 12.03C206.068 12.03 210.82 13.4252 214.336 16.1144L215.551 14.5256C211.588 11.4948 206.366 10.03 199.984 10.03V12.03ZM214.354 16.1274C217.861 18.6903 219.664 22.5406 219.664 27.86H221.664C221.664 22.0328 219.653 17.523 215.534 14.5126L214.354 16.1274ZM70.89 172.79L71.6098 173.484L72.2981 172.77L71.5902 172.076L70.89 172.79ZM65.17 167.18L65.8702 166.466L65.1775 165.787L64.4775 166.459L65.17 167.18ZM53.95 175.43L54.3972 176.324L54.404 176.321L54.4108 176.317L53.95 175.43ZM28.43 175.87L28.0051 176.775L28.0161 176.78L28.0273 176.785L28.43 175.87ZM18.97 169.05L18.2351 169.728L18.2445 169.738L18.97 169.05ZM12.7 158.93L11.7644 159.283L11.7673 159.291L11.7703 159.298L12.7 158.93ZM12.7 133.96L11.7703 133.592L11.7667 133.601L12.7 133.96ZM18.97 123.84L18.2445 123.152L18.2352 123.162L18.97 123.84ZM28.43 117.13L28.0273 116.215L28.0204 116.218L28.43 117.13ZM53.84 117.68L53.3721 118.564L53.3792 118.567L53.84 117.68ZM64.51 125.27L63.8277 126.001L64.5596 126.684L65.2419 125.951L64.51 125.27ZM70.45 118.89L71.1819 119.571L71.8524 118.851L71.1431 118.169L70.45 118.89ZM64.51 113.94L63.91 114.74L63.9193 114.747L63.9288 114.754L64.51 113.94ZM57.8 110.09L57.3862 111L57.3978 111.006L57.4095 111.011L57.8 110.09ZM49.88 107.56L49.674 108.539L49.6791 108.54L49.88 107.56ZM24.8 109.87L25.1957 110.788L25.2074 110.783L24.8 109.87ZM12.48 118.45L13.2017 119.142L13.2086 119.135L12.48 118.45ZM4.34 131.1L3.41437 130.721L3.40959 130.733L4.34 131.1ZM4.34 162.23L3.40951 162.597L3.41445 162.609L4.34 162.23ZM12.48 174.88L11.7583 175.572L11.7655 175.58L12.48 174.88ZM24.69 183.24L24.2892 184.156L24.69 183.24ZM49.66 185.33L49.8849 186.304L49.66 185.33ZM57.69 182.58L58.1158 183.485L57.69 182.58ZM64.62 178.4L65.2244 179.197L65.2284 179.194L64.62 178.4ZM71.5902 172.076L65.8702 166.466L64.4698 167.894L70.1898 173.504L71.5902 172.076ZM64.4775 166.459C60.8675 169.924 57.2039 172.614 53.4892 174.543L54.4108 176.317C58.3227 174.286 62.1392 171.476 65.8625 167.901L64.4775 166.459ZM53.5028 174.536C49.8575 176.358 45.471 177.29 40.31 177.29V179.29C45.709 179.29 50.4159 178.315 54.3972 176.324L53.5028 174.536ZM40.31 177.29C36.1866 177.29 32.3647 176.509 28.8327 174.955L28.0273 176.785C31.8286 178.458 35.9267 179.29 40.31 179.29V177.29ZM28.8549 174.965C25.3736 173.331 22.3224 171.131 19.6955 168.362L18.2445 169.738C21.0443 172.689 24.2997 175.036 28.0051 176.775L28.8549 174.965ZM19.7048 168.372C17.1543 165.609 15.1277 162.342 13.6297 158.562L11.7703 159.298C13.3523 163.291 15.5057 166.771 18.2352 169.728L19.7048 168.372ZM13.6356 158.577C12.2147 154.812 11.5 150.752 11.5 146.39H9.5C9.5 150.975 10.252 155.275 11.7644 159.283L13.6356 158.577ZM11.5 146.39C11.5 142.028 12.2147 138.007 13.6333 134.319L11.7667 133.601C10.2519 137.539 9.5 141.806 9.5 146.39H11.5ZM13.6297 134.328C15.1277 130.548 17.1543 127.281 19.7048 124.518L18.2352 123.162C15.5057 126.119 13.3523 129.599 11.7703 133.592L13.6297 134.328ZM19.6955 124.528C22.3192 121.763 25.3652 119.602 28.8396 118.042L28.0204 116.218C24.3081 117.884 21.0475 120.197 18.2445 123.152L19.6955 124.528ZM28.8327 118.045C32.3647 116.491 36.1866 115.71 40.31 115.71V113.71C35.9267 113.71 31.8286 114.542 28.0273 116.215L28.8327 118.045ZM40.31 115.71C45.4666 115.71 49.8077 116.677 53.3721 118.564L54.3079 116.796C50.3923 114.723 45.7134 113.71 40.31 113.71V115.71ZM53.3792 118.567C57.1079 120.504 60.5907 122.98 63.8277 126.001L65.1923 124.539C61.8293 121.4 58.1987 118.816 54.3008 116.792L53.3792 118.567ZM65.2419 125.951L71.1819 119.571L69.7181 118.209L63.7781 124.589L65.2419 125.951ZM71.1431 118.169C69.2031 116.304 67.1859 114.622 65.0912 113.126L63.9288 114.754C65.9408 116.191 67.8835 117.81 69.7569 119.611L71.1431 118.169ZM65.11 113.14C62.9904 111.55 60.6832 110.227 58.1906 109.169L57.4095 111.011C59.7568 112.006 61.9229 113.25 63.91 114.74L65.11 113.14ZM58.2138 109.18C55.7194 108.046 53.0072 107.181 50.0809 106.58L49.6791 108.54C52.4728 109.113 55.0406 109.934 57.3862 111L58.2138 109.18ZM50.086 106.581C47.2179 105.978 43.9937 105.68 40.42 105.68V107.68C43.8863 107.68 46.9687 107.969 49.674 108.539L50.086 106.581ZM40.42 105.68C34.6446 105.68 29.2977 106.768 24.3926 108.957L25.2074 110.783C29.8357 108.718 34.9021 107.68 40.42 107.68V105.68ZM24.4044 108.952C19.5159 111.057 15.2948 113.995 11.7514 117.765L13.2086 119.135C16.5585 115.571 20.5507 112.789 25.1956 110.788L24.4044 108.952ZM11.7583 117.758C8.22025 121.446 5.43965 125.771 3.41445 130.721L5.26555 131.479C7.20035 126.749 9.84642 122.64 13.2017 119.142L11.7583 117.758ZM3.40959 130.733C1.45435 135.697 0.48 140.992 0.48 146.61H2.48C2.48 141.228 3.41232 136.183 5.27041 131.467L3.40959 130.733ZM0.48 146.61C0.48 152.3 1.45374 157.632 3.40959 162.597L5.27041 161.863C3.41292 157.148 2.48 152.067 2.48 146.61H0.48ZM3.41445 162.609C5.43965 167.559 8.22025 171.884 11.7583 175.572L13.2017 174.188C9.84642 170.69 7.20035 166.581 5.26555 161.851L3.41445 162.609ZM11.7655 175.58C15.3054 179.195 19.4831 182.054 24.2892 184.156L25.0908 182.324C20.5102 180.32 16.5479 177.605 13.1945 174.18L11.7655 175.58ZM24.2892 184.156C29.1197 186.27 34.391 187.32 40.09 187.32V185.32C34.6424 185.32 29.647 184.317 25.0908 182.324L24.2892 184.156ZM40.09 187.32C43.6712 187.32 46.9382 186.984 49.8849 186.304L49.4351 184.356C46.6618 184.996 43.5488 185.32 40.09 185.32V187.32ZM49.8849 186.304C52.8096 185.629 55.5541 184.69 58.1158 183.485L57.2642 181.675C54.8392 182.816 52.2304 183.711 49.4351 184.356L49.8849 186.304ZM58.1158 183.485C60.6702 182.283 63.0404 180.854 65.2244 179.197L64.0156 177.603C61.9463 179.173 59.6964 180.531 57.2642 181.675L58.1158 183.485ZM65.2284 179.194C67.4691 177.476 69.5962 175.572 71.6098 173.484L70.1702 172.096C68.2238 174.114 66.1709 175.951 64.0116 177.606L65.2284 179.194ZM156.223 131.21L155.287 131.564L155.291 131.573L155.294 131.581L156.223 131.21ZM148.303 118.56L147.574 119.245L147.581 119.252L148.303 118.56ZM135.872 109.87L135.465 110.783L135.47 110.786L135.872 109.87ZM103.863 109.98L104.265 110.896L104.276 110.89L103.863 109.98ZM83.4025 131.43L84.331 131.801L84.3329 131.797L83.4025 131.43ZM83.2925 161.9L82.3573 162.254L82.3606 162.263L82.364 162.271L83.2925 161.9ZM91.3225 174.55L90.5938 175.235L90.6008 175.242L91.3225 174.55ZM103.643 183.13L103.235 184.043L103.24 184.046L103.643 183.13ZM135.763 183.13L136.165 184.046L136.176 184.04L135.763 183.13ZM148.193 174.33L147.464 173.645L148.193 174.33ZM156.223 161.68L157.151 162.051L157.153 162.047L156.223 161.68ZM147.753 159.04L146.823 158.672L146.819 158.681L147.753 159.04ZM141.592 169.05L140.858 168.372L141.592 169.05ZM132.023 175.87L132.425 176.785L132.434 176.782L132.023 175.87ZM107.713 175.76L107.295 176.669L107.301 176.672L107.713 175.76ZM98.1425 168.94L98.868 168.252L98.1425 168.94ZM91.7625 158.82L90.8269 159.173L90.8298 159.181L90.8328 159.188L91.7625 158.82ZM91.7625 134.07L90.8328 133.702L90.8292 133.711L91.7625 134.07ZM98.0325 123.95L98.7673 124.628L98.0325 123.95ZM107.493 117.24L107.895 118.155L107.904 118.152L107.493 117.24ZM131.803 117.24L131.385 118.149L131.391 118.152L131.803 117.24ZM141.482 124.06L140.757 124.748L141.482 124.06ZM147.753 134.18L146.817 134.533L146.82 134.541L146.823 134.548L147.753 134.18ZM160.083 146.39C160.083 140.915 159.107 135.728 157.151 130.839L155.294 131.581C157.151 136.225 158.083 141.158 158.083 146.39H160.083ZM157.158 130.856C155.279 125.895 152.568 121.562 149.024 117.868L147.581 119.252C150.931 122.745 153.5 126.845 155.287 131.564L157.158 130.856ZM149.031 117.875C145.488 114.105 141.232 111.132 136.275 108.954L135.47 110.786C140.193 112.861 144.224 115.681 147.574 119.245L149.031 117.875ZM136.28 108.957C131.37 106.766 125.912 105.68 119.923 105.68V107.68C125.666 107.68 130.842 108.72 135.465 110.783L136.28 108.957ZM119.923 105.68C113.928 105.68 108.432 106.805 103.449 109.07L104.276 110.89C108.973 108.755 114.184 107.68 119.923 107.68V105.68ZM103.46 109.064C98.5034 111.242 94.2473 114.215 90.7039 117.985L92.1611 119.355C95.511 115.791 99.5416 112.971 104.265 110.896L103.46 109.064ZM90.7039 117.985C87.1674 121.747 84.4236 126.11 82.4721 131.063L84.3329 131.797C86.1947 127.07 88.8042 122.926 92.1611 119.355L90.7039 117.985ZM82.474 131.059C80.5181 135.948 79.5425 141.135 79.5425 146.61H81.5425C81.5425 141.378 82.4736 136.445 84.331 131.801L82.474 131.059ZM79.5425 146.61C79.5425 152.08 80.4797 157.297 82.3573 162.254L84.2277 161.546C82.4387 156.823 81.5425 151.847 81.5425 146.61H79.5425ZM82.364 162.271C84.3162 167.152 87.0598 171.475 90.5939 175.235L92.0511 173.865C88.6918 170.291 86.0822 166.182 84.221 161.529L82.364 162.271ZM90.6008 175.242C94.1413 178.933 98.3561 181.866 103.235 184.043L104.05 182.217C99.3955 180.14 95.3971 177.353 92.0442 173.858L90.6008 175.242ZM103.24 184.046C108.22 186.234 113.713 187.32 119.702 187.32V185.32C113.959 185.32 108.745 184.28 104.045 182.214L103.24 184.046ZM119.702 187.32C125.692 187.32 131.185 186.234 136.165 184.046L135.36 182.214C130.66 184.28 125.446 185.32 119.702 185.32V187.32ZM136.176 184.04C141.128 181.79 145.38 178.782 148.921 175.015L147.464 173.645C144.111 177.212 140.077 180.07 135.349 182.22L136.176 184.04ZM148.921 175.015C152.455 171.255 155.199 166.932 157.151 162.051L155.294 161.309C153.433 165.962 150.823 170.071 147.464 173.645L148.921 175.015ZM157.153 162.047C159.107 157.086 160.083 151.865 160.083 146.39H158.083C158.083 151.622 157.151 156.594 155.292 161.313L157.153 162.047ZM149.062 146.61C149.062 150.891 148.314 154.908 146.823 158.672L148.682 159.408C150.271 155.398 151.062 151.129 151.062 146.61H149.062ZM146.819 158.681C145.396 162.382 143.408 165.609 140.858 168.372L142.327 169.728C145.057 166.771 147.176 163.324 148.686 159.399L146.819 158.681ZM140.858 168.372C138.314 171.128 135.236 173.324 131.611 174.958L132.434 176.782C136.289 175.043 139.591 172.692 142.327 169.728L140.858 168.372ZM131.62 174.955C128.092 176.507 124.198 177.29 119.923 177.29V179.29C124.447 179.29 128.62 178.46 132.425 176.785L131.62 174.955ZM119.923 177.29C115.654 177.29 111.725 176.473 108.124 174.848L107.301 176.672C111.18 178.421 115.391 179.29 119.923 179.29V177.29ZM108.13 174.852C104.577 173.217 101.492 171.017 98.868 168.252L97.417 169.628C100.22 172.583 103.515 174.93 107.295 176.668L108.13 174.852ZM98.868 168.252C96.2477 165.49 94.188 162.227 92.6922 158.452L90.8328 159.188C92.417 163.186 94.6106 166.67 97.417 169.628L98.868 168.252ZM92.6981 158.467C91.2765 154.7 90.5625 150.677 90.5625 146.39H88.5625C88.5625 150.903 89.3152 155.167 90.8269 159.173L92.6981 158.467ZM90.5625 146.39C90.5625 142.103 91.2765 138.119 92.6958 134.429L90.8292 133.711C89.3151 137.647 88.5625 141.877 88.5625 146.39H90.5625ZM92.6922 134.438C94.1902 130.658 96.2168 127.391 98.7673 124.628L97.2977 123.272C94.5682 126.229 92.4148 129.709 90.8328 133.702L92.6922 134.438ZM98.7673 124.628C101.311 121.872 104.351 119.715 107.895 118.155L107.09 116.325C103.301 117.992 100.034 120.308 97.2977 123.272L98.7673 124.628ZM107.904 118.152C111.505 116.527 115.434 115.71 119.702 115.71V113.71C115.171 113.71 110.96 114.579 107.081 116.328L107.904 118.152ZM119.702 115.71C123.971 115.71 127.86 116.527 131.385 118.148L132.22 116.332C128.411 114.579 124.234 113.71 119.702 113.71V115.71ZM131.391 118.152C135.018 119.787 138.137 121.986 140.757 124.748L142.208 123.372C139.402 120.414 136.067 118.066 132.214 116.328L131.391 118.152ZM140.757 124.748C143.374 127.506 145.395 130.764 146.817 134.533L148.688 133.827C147.177 129.822 145.018 126.334 142.208 123.372L140.757 124.748ZM146.823 134.548C148.314 138.312 149.062 142.329 149.062 146.61H151.062C151.062 142.091 150.271 137.822 148.682 133.812L146.823 134.548ZM241.1 185V186H243.102L241.899 184.399L241.1 185ZM217.45 153.54L217.281 152.554L215.665 152.83L216.65 154.141L217.45 153.54ZM225.81 150.9L226.246 151.8L225.81 150.9ZM232.41 146.28L233.117 146.987L232.41 146.28ZM236.81 139.68L237.734 140.061L237.738 140.051L236.81 139.68ZM236.37 121.64L235.462 122.059L235.466 122.068L236.37 121.64ZM230.76 114.38L230.113 115.143L230.119 115.148L230.126 115.154L230.76 114.38ZM221.96 109.65L221.65 110.601L221.655 110.603L221.96 109.65ZM177.41 108V107H176.41V108H177.41ZM177.41 185H176.41V186H177.41V185ZM186.1 185V186H187.1V185H186.1ZM186.1 155.08V154.08H185.1V155.08H186.1ZM208.1 155.08L208.901 154.482L208.601 154.08H208.1V155.08ZM230.43 185L229.628 185.598L229.928 186H230.43V185ZM228.01 138.03L227.122 137.57L227.115 137.583L227.109 137.596L228.01 138.03ZM223.94 143.09L224.54 143.89L224.55 143.882L224.56 143.874L223.94 143.09ZM217.67 146.17L217.96 147.127L217.67 146.17ZM186.1 147.27H185.1V148.27H186.1V147.27ZM186.1 116.03V115.03H185.1V116.03H186.1ZM224.38 120.1L223.761 120.886L223.771 120.894L224.38 120.1ZM241.899 184.399L218.249 152.939L216.65 154.141L240.3 185.601L241.899 184.399ZM217.618 154.526C220.711 153.998 223.589 153.09 226.246 151.8L225.373 150C222.897 151.203 220.201 152.056 217.281 152.554L217.618 154.526ZM226.246 151.8C228.903 150.509 231.197 148.907 233.117 146.987L231.702 145.573C229.955 147.32 227.849 148.798 225.373 150L226.246 151.8ZM233.117 146.987C235.117 144.987 236.657 142.676 237.734 140.061L235.885 139.299C234.908 141.671 233.516 143.76 231.702 145.573L233.117 146.987ZM237.738 140.051C238.819 137.349 239.35 134.323 239.35 130.99H237.35C237.35 134.11 236.853 136.878 235.881 139.309L237.738 140.051ZM239.35 130.99C239.35 127.413 238.664 124.147 237.273 121.212L235.466 122.068C236.715 124.706 237.35 127.674 237.35 130.99H239.35ZM237.277 121.221C235.894 118.224 233.931 115.683 231.393 113.606L230.126 115.154C232.428 117.037 234.205 119.336 235.462 122.059L237.277 121.221ZM231.407 113.617C228.873 111.468 225.818 109.832 222.264 108.697L221.655 110.603C224.994 111.668 227.806 113.186 230.113 115.143L231.407 113.617ZM222.27 108.699C218.779 107.561 214.858 107 210.52 107V109C214.688 109 218.394 109.539 221.65 110.601L222.27 108.699ZM210.52 107H177.41V109H210.52V107ZM176.41 108V185H178.41V108H176.41ZM177.41 186H186.1V184H177.41V186ZM187.1 185V155.08H185.1V185H187.1ZM186.1 156.08H208.1V154.08H186.1V156.08ZM207.298 155.678L229.628 185.598L231.231 184.402L208.901 154.482L207.298 155.678ZM230.43 186H241.1V184H230.43V186ZM228.55 131.32C228.55 133.672 228.066 135.748 227.122 137.57L228.897 138.49C230.006 136.352 230.55 133.954 230.55 131.32H228.55ZM227.109 137.596C226.222 139.437 224.963 141.005 223.319 142.306L224.56 143.874C226.436 142.389 227.89 140.583 228.911 138.464L227.109 137.596ZM223.34 142.29C221.686 143.53 219.704 144.509 217.38 145.213L217.96 147.127C220.475 146.365 222.673 145.29 224.54 143.89L223.34 142.29ZM217.38 145.213C215.065 145.914 212.524 146.27 209.75 146.27V148.27C212.695 148.27 215.434 147.892 217.96 147.127L217.38 145.213ZM209.75 146.27H186.1V148.27H209.75V146.27ZM187.1 147.27V116.03H185.1V147.27H187.1ZM186.1 117.03H209.86V115.03H186.1V117.03ZM209.86 117.03C215.961 117.03 220.551 118.359 223.761 120.886L224.998 119.314C221.314 116.414 216.225 115.03 209.86 115.03V117.03ZM223.771 120.894C226.94 123.321 228.55 126.75 228.55 131.32H230.55C230.55 126.21 228.712 122.159 224.988 119.306L223.771 120.894ZM313.552 169.71L312.766 170.328L314.552 172.6V169.71H313.552ZM265.042 108L265.828 107.382L265.528 107H265.042V108ZM256.902 108V107H255.902V108H256.902ZM256.902 185H255.902V186H256.902V185ZM265.372 185V186H266.372V185H265.372ZM265.372 121.86L266.157 121.241L264.372 118.974V121.86H265.372ZM315.092 185L314.306 185.619L314.606 186H315.092V185ZM322.022 185V186H323.022V185H322.022ZM322.022 108H323.022V107H322.022V108ZM313.552 108V107H312.552V108H313.552ZM314.338 169.092L265.828 107.382L264.256 108.618L312.766 170.328L314.338 169.092ZM265.042 107H256.902V109H265.042V107ZM255.902 108V185H257.902V108H255.902ZM256.902 186H265.372V184H256.902V186ZM266.372 185V121.86H264.372V185H266.372ZM264.586 122.479L314.306 185.619L315.877 184.381L266.157 121.241L264.586 122.479ZM315.092 186H322.022V184H315.092V186ZM323.022 185V108H321.022V185H323.022ZM322.022 107H313.552V109H322.022V107ZM312.552 108V169.71H314.552V108H312.552Z" fill="white"/>
</svg>
