<svg width="592" height="79" viewBox="0 0 592 79" fill="none" xmlns="http://www.w3.org/2000/svg">
<path d="M20.52 15.52L21.1447 16.3009L21.1525 16.2946L21.1602 16.2882L20.52 15.52ZM39.315 14.89L38.9402 15.8171L38.9488 15.8206L38.9574 15.8239L39.315 14.89ZM49.29 20.455L48.7008 21.263L49.5193 21.8598L50.1055 21.0337L49.29 20.455ZM56.22 10.69L57.0355 11.2687L57.5831 10.4971L56.8429 9.90772L56.22 10.69ZM44.04 3.865L43.6872 4.80069L43.6964 4.80415L43.7056 4.80742L44.04 3.865ZM19.47 3.02499L19.7732 3.97792L19.783 3.97481L19.7927 3.9715L19.47 3.02499ZM11.49 7.33L10.8451 6.5657L10.8391 6.57076L10.8332 6.57591L11.49 7.33ZM6.345 14.155L7.24428 14.5925L7.24874 14.5831L6.345 14.155ZM6.03 31.585L5.11508 31.9886L5.12 31.9998L5.12518 32.0108L6.03 31.585ZM10.755 37.675L10.1174 38.4454L10.1238 38.4507L10.1303 38.4559L10.755 37.675ZM18.42 41.875L18.0713 42.8122L18.0783 42.8148L18.42 41.875ZM28.92 44.92L29.1579 43.9486L29.1461 43.9459L28.92 44.92ZM37.215 47.335L36.8707 48.2739L36.8806 48.2774L37.215 47.335ZM42.255 49.855L41.6476 50.6494L41.6733 50.6691L41.7003 50.687L42.255 49.855ZM44.775 52.69L43.8465 53.0614L43.8569 53.0874L43.8688 53.1129L44.775 52.69ZM41.94 63.085L41.3633 62.268L41.3518 62.2763L41.94 63.085ZM20.1 63.19L19.6809 64.098L19.6882 64.1013L19.6955 64.1045L20.1 63.19ZM9.285 56.05L9.93823 55.2928L9.17143 54.6313L8.51964 55.4064L9.285 56.05ZM1.515 65.29L0.749638 64.6464L0.128954 65.3845L0.844087 66.0315L1.515 65.29ZM15.9 74.215L15.5461 75.1504L15.5572 75.1544L15.9 74.215ZM51.075 71.275L51.7082 72.049L51.7082 72.049L51.075 71.275ZM56.43 64.345L55.531 63.907L55.5264 63.9164L55.522 63.9259L56.43 64.345ZM56.85 47.02L55.9294 47.4105L55.9367 47.4276L55.9445 47.4444L56.85 47.02ZM52.44 41.035L51.774 41.7809L51.7815 41.7877L51.7892 41.7943L52.44 41.035ZM44.985 36.625L44.6098 37.552L44.6173 37.555L44.985 36.625ZM34.8 33.37L35.0467 32.4008L35.0334 32.3976L34.8 33.37ZM26.085 30.955L25.7599 31.9007L25.7688 31.9037L26.085 30.955ZM20.73 28.435L20.1445 29.2457L20.1548 29.2531L20.1653 29.2603L20.73 28.435ZM18.105 25.495L19.0112 25.0721L19.0112 25.0721L18.105 25.495ZM18.37 21.715C18.37 19.6011 19.2555 17.8123 21.1447 16.3009L19.8953 14.7391C17.5845 16.5877 16.37 18.9289 16.37 21.715H18.37ZM21.1602 16.2882C23.0223 14.7365 25.705 13.895 29.34 13.895V11.895C25.415 11.895 22.2177 12.8035 19.8798 14.7518L21.1602 16.2882ZM29.34 13.895C32.5644 13.895 35.7625 14.5325 38.9402 15.8171L39.6898 13.9629C36.2875 12.5875 32.8356 11.895 29.34 11.895V13.895ZM38.9574 15.8239C42.1517 17.0472 45.3997 18.8559 48.7008 21.263L49.8792 19.647C46.4603 17.1541 43.0583 15.2528 39.6727 13.9561L38.9574 15.8239ZM50.1055 21.0337L57.0355 11.2687L55.4045 10.1112L48.4745 19.8762L50.1055 21.0337ZM56.8429 9.90772C52.9806 6.83215 48.8239 4.5014 44.3744 2.92257L43.7056 4.80742C47.9362 6.30859 51.8994 8.52784 55.5971 11.4723L56.8429 9.90772ZM44.3928 2.9293C39.9916 1.26984 35.0392 0.449996 29.55 0.449996V2.45C34.8408 2.45 39.5484 3.24015 43.6872 4.80069L44.3928 2.9293ZM29.55 0.449996C25.8131 0.449996 22.3428 0.989133 19.1473 2.07848L19.7927 3.9715C22.7572 2.96086 26.0069 2.45 29.55 2.45V0.449996ZM19.1668 2.07207C15.9745 3.08779 13.1954 4.58268 10.8451 6.5657L12.1349 8.09429C14.2646 6.29731 16.8055 4.9222 19.7732 3.97792L19.1668 2.07207ZM10.8332 6.57591C8.55692 8.5585 6.75886 10.9453 5.44126 13.7269L7.24874 14.5831C8.45114 12.0447 10.0831 9.88149 12.1468 8.08408L10.8332 6.57591ZM5.44577 13.7175C4.11199 16.4592 3.455 19.5165 3.455 22.87H5.455C5.455 19.7835 6.05801 17.0308 7.24424 14.5925L5.44577 13.7175ZM3.455 22.87C3.455 26.3968 3.99415 29.4479 5.11508 31.9886L6.94492 31.1814C5.96585 28.9621 5.455 26.2032 5.455 22.87H3.455ZM5.12518 32.0108C6.30795 34.5242 7.97429 36.6718 10.1174 38.4454L11.3926 36.9046C9.47571 35.3182 7.99206 33.4058 6.93482 31.1592L5.12518 32.0108ZM10.1303 38.4559C12.3277 40.2138 14.9803 41.6621 18.0713 42.8122L18.7687 40.9378C15.8397 39.8479 13.3823 38.4962 11.3797 36.8941L10.1303 38.4559ZM18.0783 42.8148C21.2034 43.9512 24.7431 44.977 28.6939 45.8941L29.1461 43.9459C25.2569 43.043 21.7966 42.0388 18.7617 40.9352L18.0783 42.8148ZM28.6821 45.8913C32.0941 46.7269 34.8195 47.5217 36.8707 48.2739L37.5593 46.3961C35.4105 45.6082 32.6059 44.7931 29.1579 43.9487L28.6821 45.8913ZM36.8806 48.2774C38.9992 49.0292 40.5722 49.827 41.6476 50.6494L42.8625 49.0606C41.5578 48.063 39.7708 47.1808 37.5494 46.3926L36.8806 48.2774ZM41.7003 50.687C42.848 51.4522 43.5233 52.2533 43.8465 53.0614L45.7035 52.3186C45.1867 51.0267 44.182 49.9378 42.8097 49.0229L41.7003 50.687ZM43.8688 53.1129C44.2885 54.0122 44.51 55.0546 44.51 56.26H46.51C46.51 54.8054 46.2415 53.4678 45.6812 52.2671L43.8688 53.1129ZM44.51 56.26C44.51 58.7993 43.4826 60.772 41.3633 62.268L42.5167 63.902C45.1574 62.038 46.51 59.4607 46.51 56.26H44.51ZM41.3518 62.2763C39.2687 63.7913 36.3503 64.605 32.49 64.605V66.605C36.6097 66.605 39.9913 65.7387 42.5282 63.8937L41.3518 62.2763ZM32.49 64.605C27.9871 64.605 23.9982 63.8208 20.5045 62.2755L19.6955 64.1045C23.4818 65.7792 27.7529 66.605 32.49 66.605V64.605ZM20.5191 62.282C16.9771 60.6473 13.4497 58.3223 9.93823 55.2928L8.63177 56.8072C12.2603 59.9377 15.9429 62.3727 19.6809 64.098L20.5191 62.282ZM8.51964 55.4064L0.749638 64.6464L2.28036 65.9336L10.0504 56.6936L8.51964 55.4064ZM0.844087 66.0315C5.33984 70.0991 10.2409 73.1429 15.5461 75.1503L16.2539 73.2797C11.1991 71.3671 6.51016 68.4609 2.18591 64.5485L0.844087 66.0315ZM15.5572 75.1544C20.8502 77.0856 26.3914 78.05 32.175 78.05V76.05C26.6186 76.05 21.3098 75.1244 16.2428 73.2756L15.5572 75.1544ZM32.175 78.05C36.1098 78.05 39.7443 77.5492 43.0712 76.5367L42.4888 74.6233C39.3757 75.5708 35.9403 76.05 32.175 76.05V78.05ZM43.0712 76.5367C46.4001 75.5235 49.2851 74.0315 51.7082 72.049L50.4418 70.501C48.2449 72.2985 45.5999 73.6765 42.4888 74.6233L43.0712 76.5367ZM51.7082 72.049C54.1364 70.0623 56.0149 67.6306 57.338 64.7641L55.522 63.9259C54.3251 66.5194 52.6336 68.7077 50.4418 70.501L51.7082 72.049ZM57.329 64.783C58.7349 61.8971 59.425 58.6286 59.425 55H57.425C57.425 58.3714 56.7851 61.3329 55.531 63.907L57.329 64.783ZM59.425 55C59.425 51.8083 58.881 48.9968 57.7555 46.5956L55.9445 47.4444C56.919 49.5232 57.425 52.0317 57.425 55H59.425ZM57.7706 46.6294C56.7285 44.1732 55.1645 42.0532 53.0908 40.2757L51.7892 41.7943C53.6355 43.3768 55.0115 45.2468 55.9294 47.4105L57.7706 46.6294ZM53.106 40.2891C51.0405 38.4448 48.4477 36.9186 45.3527 35.695L44.6173 37.555C47.5423 38.7113 49.9195 40.1252 51.774 41.7809L53.106 40.2891ZM45.3602 35.698C42.3695 34.4875 38.93 33.3894 35.0467 32.4009L34.5533 34.3391C38.37 35.3106 41.7205 36.3825 44.6098 37.5519L45.3602 35.698ZM35.0334 32.3976C31.5495 31.5615 28.6744 30.7641 26.4012 30.0063L25.7688 31.9037C28.1156 32.6859 31.0505 33.4985 34.5666 34.3424L35.0334 32.3976ZM26.4101 30.0093C24.2191 29.2562 22.5247 28.4513 21.2947 27.6097L20.1653 29.2603C21.5953 30.2387 23.4709 31.1138 25.7599 31.9007L26.4101 30.0093ZM21.3155 27.6243C20.1483 26.7814 19.4086 25.9238 19.0112 25.0721L17.1988 25.9179C17.7814 27.1662 18.7917 28.2686 20.1445 29.2457L21.3155 27.6243ZM19.0112 25.0721C18.5972 24.1851 18.37 23.0769 18.37 21.715H16.37C16.37 23.2931 16.6328 24.7049 17.1988 25.9179L19.0112 25.0721ZM110.085 1.975L111.001 1.57465L110.739 0.974995H110.085V1.975ZM98.115 1.975V0.974995H97.4606L97.1986 1.57465L98.115 1.975ZM65.775 76L64.8586 75.5997L64.2469 77H65.775V76ZM79.005 76V77H79.6659L79.925 76.3919L79.005 76ZM86.565 58.255V57.255H85.9041L85.645 57.8631L86.565 58.255ZM121.32 58.255L122.242 57.8677L121.985 57.255H121.32V58.255ZM128.775 76L127.853 76.3873L128.11 77H128.775V76ZM142.425 76V77H143.953L143.341 75.5997L142.425 76ZM116.595 46.81V47.81H118.117L117.513 46.4133L116.595 46.81ZM91.29 46.81L90.3709 46.4161L89.7735 47.81H91.29V46.81ZM103.89 17.41L104.808 17.0133L103.886 14.8803L102.971 17.0161L103.89 17.41ZM110.085 0.974995H98.115V2.975H110.085V0.974995ZM97.1986 1.57465L64.8586 75.5997L66.6914 76.4003L99.0314 2.37534L97.1986 1.57465ZM65.775 77H79.005V75H65.775V77ZM79.925 76.3919L87.485 58.6469L85.645 57.8631L78.085 75.6081L79.925 76.3919ZM86.565 59.255H121.32V57.255H86.565V59.255ZM120.398 58.6423L127.853 76.3873L129.697 75.6127L122.242 57.8677L120.398 58.6423ZM128.775 77H142.425V75H128.775V77ZM143.341 75.5997L111.001 1.57465L109.169 2.37534L141.509 76.4003L143.341 75.5997ZM116.595 45.81H91.29V47.81H116.595V45.81ZM92.2091 47.2039L104.809 17.8039L102.971 17.0161L90.3709 46.4161L92.2091 47.2039ZM102.972 17.8067L115.677 47.2067L117.513 46.4133L104.808 17.0133L102.972 17.8067ZM155.029 76H154.029V77H155.029V76ZM206.584 76V77H207.584V76H206.584ZM206.584 64.24H207.584V63.24H206.584V64.24ZM167.944 64.24H166.944V65.24H167.944V64.24ZM167.944 2.49999H168.944V1.49999H167.944V2.49999ZM155.029 2.49999V1.49999H154.029V2.49999H155.029ZM155.029 77H206.584V75H155.029V77ZM207.584 76V64.24H205.584V76H207.584ZM206.584 63.24H167.944V65.24H206.584V63.24ZM168.944 64.24V2.49999H166.944V64.24H168.944ZM167.944 1.49999H155.029V3.49999H167.944V1.49999ZM154.029 2.49999V76H156.029V2.49999H154.029ZM274.534 2.49999H275.534V1.49999H274.534V2.49999ZM220.039 2.49999V1.49999H219.039V2.49999H220.039ZM220.039 76H219.039V77H220.039V76ZM275.059 76V77H276.059V76H275.059ZM275.059 64.45H276.059V63.45H275.059V64.45ZM232.954 64.45H231.954V65.45H232.954V64.45ZM232.954 44.71V43.71H231.954V44.71H232.954ZM269.809 44.71V45.71H270.809V44.71H269.809ZM269.809 33.16H270.809V32.16H269.809V33.16ZM232.954 33.16H231.954V34.16H232.954V33.16ZM232.954 14.05V13.05H231.954V14.05H232.954ZM274.534 14.05V15.05H275.534V14.05H274.534ZM274.534 1.49999H220.039V3.49999H274.534V1.49999ZM219.039 2.49999V76H221.039V2.49999H219.039ZM220.039 77H275.059V75H220.039V77ZM276.059 76V64.45H274.059V76H276.059ZM275.059 63.45H232.954V65.45H275.059V63.45ZM233.954 64.45V44.71H231.954V64.45H233.954ZM232.954 45.71H269.809V43.71H232.954V45.71ZM270.809 44.71V33.16H268.809V44.71H270.809ZM269.809 32.16H232.954V34.16H269.809V32.16ZM233.954 33.16V14.05H231.954V33.16H233.954ZM232.954 15.05H274.534V13.05H232.954V15.05ZM275.534 14.05V2.49999H273.534V14.05H275.534ZM335.93 15.52L336.555 16.3009L336.563 16.2946L336.57 16.2882L335.93 15.52ZM354.725 14.89L354.35 15.8171L354.359 15.8206L354.368 15.8239L354.725 14.89ZM364.7 20.455L364.111 21.263L364.929 21.8598L365.516 21.0337L364.7 20.455ZM371.63 10.69L372.446 11.2687L372.993 10.4971L372.253 9.90772L371.63 10.69ZM359.45 3.865L359.097 4.80069L359.107 4.80415L359.116 4.80742L359.45 3.865ZM334.88 3.02499L335.183 3.97792L335.193 3.97481L335.203 3.9715L334.88 3.02499ZM326.9 7.33L326.255 6.5657L326.249 6.57076L326.243 6.57591L326.9 7.33ZM321.755 14.155L322.654 14.5925L322.659 14.5831L321.755 14.155ZM321.44 31.585L320.525 31.9886L320.53 31.9998L320.535 32.0108L321.44 31.585ZM326.165 37.675L325.528 38.4454L325.534 38.4507L325.54 38.4559L326.165 37.675ZM333.83 41.875L333.481 42.8122L333.488 42.8148L333.83 41.875ZM344.33 44.92L344.568 43.9486L344.556 43.9459L344.33 44.92ZM352.625 47.335L352.281 48.2739L352.291 48.2774L352.625 47.335ZM357.665 49.855L357.058 50.6494L357.083 50.6691L357.11 50.687L357.665 49.855ZM360.185 52.69L359.257 53.0614L359.267 53.0874L359.279 53.1129L360.185 52.69ZM357.35 63.085L356.773 62.268L356.762 62.2763L357.35 63.085ZM335.51 63.19L335.091 64.098L335.098 64.1013L335.106 64.1045L335.51 63.19ZM324.695 56.05L325.348 55.2928L324.582 54.6313L323.93 55.4064L324.695 56.05ZM316.925 65.29L316.16 64.6464L315.539 65.3845L316.254 66.0315L316.925 65.29ZM331.31 74.215L330.956 75.1504L330.967 75.1544L331.31 74.215ZM366.485 71.275L367.118 72.049L367.118 72.049L366.485 71.275ZM371.84 64.345L370.941 63.907L370.937 63.9164L370.932 63.9259L371.84 64.345ZM372.26 47.02L371.34 47.4105L371.347 47.4276L371.355 47.4444L372.26 47.02ZM367.85 41.035L367.184 41.7809L367.192 41.7877L367.199 41.7943L367.85 41.035ZM360.395 36.625L360.02 37.552L360.027 37.555L360.395 36.625ZM350.21 33.37L350.457 32.4008L350.444 32.3976L350.21 33.37ZM341.495 30.955L341.17 31.9007L341.179 31.9037L341.495 30.955ZM336.14 28.435L335.555 29.2457L335.565 29.2531L335.575 29.2603L336.14 28.435ZM333.515 25.495L334.421 25.0721L334.421 25.0721L333.515 25.495ZM333.78 21.715C333.78 19.6011 334.666 17.8123 336.555 16.3009L335.305 14.7391C332.995 16.5877 331.78 18.9289 331.78 21.715H333.78ZM336.57 16.2882C338.432 14.7365 341.115 13.895 344.75 13.895V11.895C340.825 11.895 337.628 12.8035 335.29 14.7518L336.57 16.2882ZM344.75 13.895C347.975 13.895 351.173 14.5325 354.35 15.8171L355.1 13.9629C351.698 12.5875 348.246 11.895 344.75 11.895V13.895ZM354.368 15.8239C357.562 17.0472 360.81 18.8559 364.111 21.263L365.289 19.647C361.87 17.1541 358.468 15.2528 355.083 13.9561L354.368 15.8239ZM365.516 21.0337L372.446 11.2687L370.815 10.1112L363.885 19.8762L365.516 21.0337ZM372.253 9.90772C368.391 6.83215 364.234 4.5014 359.785 2.92257L359.116 4.80742C363.346 6.30859 367.31 8.52784 371.007 11.4723L372.253 9.90772ZM359.803 2.9293C355.402 1.26984 350.449 0.449996 344.96 0.449996V2.45C350.251 2.45 354.959 3.24015 359.097 4.80069L359.803 2.9293ZM344.96 0.449996C341.223 0.449996 337.753 0.989133 334.557 2.07848L335.203 3.9715C338.167 2.96086 341.417 2.45 344.96 2.45V0.449996ZM334.577 2.07207C331.385 3.08779 328.606 4.58268 326.255 6.5657L327.545 8.09429C329.675 6.29731 332.216 4.9222 335.183 3.97792L334.577 2.07207ZM326.243 6.57591C323.967 8.5585 322.169 10.9453 320.851 13.7269L322.659 14.5831C323.861 12.0447 325.493 9.88149 327.557 8.08408L326.243 6.57591ZM320.856 13.7175C319.522 16.4592 318.865 19.5165 318.865 22.87H320.865C320.865 19.7835 321.468 17.0308 322.654 14.5925L320.856 13.7175ZM318.865 22.87C318.865 26.3968 319.404 29.4479 320.525 31.9886L322.355 31.1814C321.376 28.9621 320.865 26.2032 320.865 22.87H318.865ZM320.535 32.0108C321.718 34.5242 323.384 36.6718 325.528 38.4454L326.803 36.9046C324.886 35.3182 323.402 33.4058 322.345 31.1592L320.535 32.0108ZM325.54 38.4559C327.738 40.2138 330.39 41.6621 333.481 42.8122L334.179 40.9378C331.25 39.8479 328.792 38.4962 326.79 36.8941L325.54 38.4559ZM333.488 42.8148C336.614 43.9512 340.153 44.977 344.104 45.8941L344.556 43.9459C340.667 43.043 337.207 42.0388 334.172 40.9352L333.488 42.8148ZM344.092 45.8913C347.504 46.7269 350.23 47.5217 352.281 48.2739L352.969 46.3961C350.821 45.6082 348.016 44.7931 344.568 43.9487L344.092 45.8913ZM352.291 48.2774C354.409 49.0292 355.982 49.827 357.058 50.6494L358.273 49.0606C356.968 48.063 355.181 47.1808 352.96 46.3926L352.291 48.2774ZM357.11 50.687C358.258 51.4522 358.933 52.2533 359.257 53.0614L361.114 52.3186C360.597 51.0267 359.592 49.9378 358.22 49.0229L357.11 50.687ZM359.279 53.1129C359.699 54.0122 359.92 55.0546 359.92 56.26H361.92C361.92 54.8054 361.652 53.4678 361.091 52.2671L359.279 53.1129ZM359.92 56.26C359.92 58.7993 358.893 60.772 356.773 62.268L357.927 63.902C360.568 62.038 361.92 59.4607 361.92 56.26H359.92ZM356.762 62.2763C354.679 63.7913 351.76 64.605 347.9 64.605V66.605C352.02 66.605 355.401 65.7387 357.938 63.8937L356.762 62.2763ZM347.9 64.605C343.397 64.605 339.408 63.8208 335.915 62.2755L335.106 64.1045C338.892 65.7792 343.163 66.605 347.9 66.605V64.605ZM335.929 62.282C332.387 60.6473 328.86 58.3223 325.348 55.2928L324.042 56.8072C327.67 59.9377 331.353 62.3727 335.091 64.098L335.929 62.282ZM323.93 55.4064L316.16 64.6464L317.691 65.9336L325.461 56.6936L323.93 55.4064ZM316.254 66.0315C320.75 70.0991 325.651 73.1429 330.956 75.1503L331.664 73.2797C326.609 71.3671 321.92 68.4609 317.596 64.5485L316.254 66.0315ZM330.967 75.1544C336.26 77.0856 341.802 78.05 347.585 78.05V76.05C342.029 76.05 336.72 75.1244 331.653 73.2756L330.967 75.1544ZM347.585 78.05C351.52 78.05 355.154 77.5492 358.481 76.5367L357.899 74.6233C354.786 75.5708 351.35 76.05 347.585 76.05V78.05ZM358.481 76.5367C361.81 75.5235 364.695 74.0315 367.118 72.049L365.852 70.501C363.655 72.2985 361.01 73.6765 357.899 74.6233L358.481 76.5367ZM367.118 72.049C369.547 70.0623 371.425 67.6306 372.748 64.7641L370.932 63.9259C369.735 66.5194 368.044 68.7077 365.852 70.501L367.118 72.049ZM372.739 64.783C374.145 61.8971 374.835 58.6286 374.835 55H372.835C372.835 58.3714 372.195 61.3329 370.941 63.907L372.739 64.783ZM374.835 55C374.835 51.8083 374.291 48.9968 373.166 46.5956L371.355 47.4444C372.329 49.5232 372.835 52.0317 372.835 55H374.835ZM373.181 46.6294C372.139 44.1732 370.575 42.0532 368.501 40.2757L367.199 41.7943C369.046 43.3768 370.422 45.2468 371.34 47.4105L373.181 46.6294ZM368.516 40.2891C366.451 38.4448 363.858 36.9186 360.763 35.695L360.027 37.555C362.952 38.7113 365.33 40.1252 367.184 41.7809L368.516 40.2891ZM360.77 35.698C357.78 34.4875 354.34 33.3894 350.457 32.4009L349.963 34.3391C353.78 35.3106 357.131 36.3825 360.02 37.5519L360.77 35.698ZM350.444 32.3976C346.96 31.5615 344.085 30.7641 341.811 30.0063L341.179 31.9037C343.526 32.6859 346.461 33.4985 349.977 34.3424L350.444 32.3976ZM341.82 30.0093C339.629 29.2562 337.935 28.4513 336.705 27.6097L335.575 29.2603C337.005 30.2387 338.881 31.1138 341.17 31.9007L341.82 30.0093ZM336.726 27.6243C335.558 26.7814 334.819 25.9238 334.421 25.0721L332.609 25.9179C333.192 27.1662 334.202 28.2686 335.555 29.2457L336.726 27.6243ZM334.421 25.0721C334.007 24.1851 333.78 23.0769 333.78 21.715H331.78C331.78 23.2931 332.043 24.7049 332.609 25.9179L334.421 25.0721ZM425.495 1.975L426.412 1.57465L426.15 0.974995H425.495V1.975ZM413.525 1.975V0.974995H412.871L412.609 1.57465L413.525 1.975ZM381.185 76L380.269 75.5997L379.657 77H381.185V76ZM394.415 76V77H395.076L395.335 76.3919L394.415 76ZM401.975 58.255V57.255H401.314L401.055 57.8631L401.975 58.255ZM436.73 58.255L437.652 57.8677L437.395 57.255H436.73V58.255ZM444.185 76L443.263 76.3873L443.521 77H444.185V76ZM457.835 76V77H459.363L458.752 75.5997L457.835 76ZM432.005 46.81V47.81H433.527L432.923 46.4133L432.005 46.81ZM406.7 46.81L405.781 46.4161L405.184 47.81H406.7V46.81ZM419.3 17.41L420.218 17.0133L419.296 14.8803L418.381 17.0161L419.3 17.41ZM425.495 0.974995H413.525V2.975H425.495V0.974995ZM412.609 1.57465L380.269 75.5997L382.102 76.4003L414.442 2.37534L412.609 1.57465ZM381.185 77H394.415V75H381.185V77ZM395.335 76.3919L402.895 58.6469L401.055 57.8631L393.495 75.6081L395.335 76.3919ZM401.975 59.255H436.73V57.255H401.975V59.255ZM435.808 58.6423L443.263 76.3873L445.107 75.6127L437.652 57.8677L435.808 58.6423ZM444.185 77H457.835V75H444.185V77ZM458.752 75.5997L426.412 1.57465L424.579 2.37534L456.919 76.4003L458.752 75.5997ZM432.005 45.81H406.7V47.81H432.005V45.81ZM407.619 47.2039L420.219 17.8039L418.381 17.0161L405.781 46.4161L407.619 47.2039ZM418.382 17.8067L431.087 47.2067L432.923 46.4133L420.218 17.0133L418.382 17.8067ZM470.439 76H469.439V77H470.439V76ZM521.994 76V77H522.994V76H521.994ZM521.994 64.24H522.994V63.24H521.994V64.24ZM483.354 64.24H482.354V65.24H483.354V64.24ZM483.354 2.49999H484.354V1.49999H483.354V2.49999ZM470.439 2.49999V1.49999H469.439V2.49999H470.439ZM470.439 77H521.994V75H470.439V77ZM522.994 76V64.24H520.994V76H522.994ZM521.994 63.24H483.354V65.24H521.994V63.24ZM484.354 64.24V2.49999H482.354V64.24H484.354ZM483.354 1.49999H470.439V3.49999H483.354V1.49999ZM469.439 2.49999V76H471.439V2.49999H469.439ZM589.944 2.49999H590.944V1.49999H589.944V2.49999ZM535.449 2.49999V1.49999H534.449V2.49999H535.449ZM535.449 76H534.449V77H535.449V76ZM590.469 76V77H591.469V76H590.469ZM590.469 64.45H591.469V63.45H590.469V64.45ZM548.364 64.45H547.364V65.45H548.364V64.45ZM548.364 44.71V43.71H547.364V44.71H548.364ZM585.219 44.71V45.71H586.219V44.71H585.219ZM585.219 33.16H586.219V32.16H585.219V33.16ZM548.364 33.16H547.364V34.16H548.364V33.16ZM548.364 14.05V13.05H547.364V14.05H548.364ZM589.944 14.05V15.05H590.944V14.05H589.944ZM589.944 1.49999H535.449V3.49999H589.944V1.49999ZM534.449 2.49999V76H536.449V2.49999H534.449ZM535.449 77H590.469V75H535.449V77ZM591.469 76V64.45H589.469V76H591.469ZM590.469 63.45H548.364V65.45H590.469V63.45ZM549.364 64.45V44.71H547.364V64.45H549.364ZM548.364 45.71H585.219V43.71H548.364V45.71ZM586.219 44.71V33.16H584.219V44.71H586.219ZM585.219 32.16H548.364V34.16H585.219V32.16ZM549.364 33.16V14.05H547.364V33.16H549.364ZM548.364 15.05H589.944V13.05H548.364V15.05ZM590.944 14.05V2.49999H588.944V14.05H590.944Z" fill="#D98B35"/>
</svg>
