<svg width="275" height="188" viewBox="0 0 275 188" fill="none" xmlns="http://www.w3.org/2000/svg">
<path d="M39.36 69.33L38.4357 69.7117L39.3582 71.9455L40.2838 69.713L39.36 69.33ZM11.97 2.99999L12.8943 2.61832L12.639 1.99999H11.97V2.99999ZM2.29 2.99999V1.99999H0.77572L1.37032 3.39265L2.29 2.99999ZM35.4 80.55L34.4803 80.9427L34.7396 81.55H35.4V80.55ZM43.1 80.55V81.55H43.7604L44.0197 80.9427L43.1 80.55ZM76.21 2.99999L77.1297 3.39265L77.7243 1.99999H76.21V2.99999ZM66.86 2.99999V1.99999H66.1921L65.9362 2.61701L66.86 2.99999ZM40.2843 68.9483L12.8943 2.61832L11.0457 3.38167L38.4357 69.7117L40.2843 68.9483ZM11.97 1.99999H2.29V3.99999H11.97V1.99999ZM1.37032 3.39265L34.4803 80.9427L36.3197 80.1573L3.20968 2.60734L1.37032 3.39265ZM35.4 81.55H43.1V79.55H35.4V81.55ZM44.0197 80.9427L77.1297 3.39265L75.2903 2.60734L42.1803 80.1573L44.0197 80.9427ZM76.21 1.99999H66.86V3.99999H76.21V1.99999ZM65.9362 2.61701L38.4362 68.947L40.2838 69.713L67.7838 3.38298L65.9362 2.61701ZM147.05 2.99999H148.05V1.99999H147.05V2.99999ZM91.39 2.99999V1.99999H90.39V2.99999H91.39ZM91.39 80H90.39V81H91.39V80ZM147.6 80V81H148.6V80H147.6ZM147.6 72.08H148.6V71.08H147.6V72.08ZM100.08 72.08H99.08V73.08H100.08V72.08ZM100.08 45.13V44.13H99.08V45.13H100.08ZM142.1 45.13V46.13H143.1V45.13H142.1ZM142.1 37.21H143.1V36.21H142.1V37.21ZM100.08 37.21H99.08V38.21H100.08V37.21ZM100.08 10.92V9.92H99.08V10.92H100.08ZM147.05 10.92V11.92H148.05V10.92H147.05ZM147.05 1.99999H91.39V3.99999H147.05V1.99999ZM90.39 2.99999V80H92.39V2.99999H90.39ZM91.39 81H147.6V79H91.39V81ZM148.6 80V72.08H146.6V80H148.6ZM147.6 71.08H100.08V73.08H147.6V71.08ZM101.08 72.08V45.13H99.08V72.08H101.08ZM100.08 46.13H142.1V44.13H100.08V46.13ZM143.1 45.13V37.21H141.1V45.13H143.1ZM142.1 36.21H100.08V38.21H142.1V36.21ZM101.08 37.21V10.92H99.08V37.21H101.08ZM100.08 11.92H147.05V9.92H100.08V11.92ZM148.05 10.92V2.99999H146.05V10.92H148.05ZM172.891 17.3L172.006 16.836L171.997 16.8529L171.989 16.8701L172.891 17.3ZM176.191 13.34L175.591 12.54L175.581 12.5474L175.572 12.5551L176.191 13.34ZM181.361 10.7L181.055 9.74791L181.045 9.75131L181.361 10.7ZM199.511 11.69L199.167 12.6287L199.173 12.6309L199.511 11.69ZM210.401 18.07L209.769 18.8447L210.574 19.5019L211.2 18.6721L210.401 18.07ZM215.461 11.36L216.26 11.9621L216.846 11.1844L216.084 10.5777L215.461 11.36ZM203.141 4.32L202.781 5.25292L202.791 5.25669L202.801 5.26026L203.141 4.32ZM178.281 3.54999L178.598 4.49868L178.608 4.49531L178.618 4.49174L178.281 3.54999ZM170.251 7.95L170.879 8.72841L170.887 8.72237L170.894 8.71619L170.251 7.95ZM164.971 14.55L165.871 14.9869L164.971 14.55ZM164.641 31.38L165.558 30.9792L164.641 31.38ZM169.371 37.54L168.734 38.3104L169.371 37.54ZM177.401 42.05L177.041 42.9828L177.048 42.9855L177.401 42.05ZM188.951 45.35L189.165 44.373L189.163 44.3727L188.951 45.35ZM198.851 48.1L198.503 49.0375L198.512 49.0406L198.851 48.1ZM205.011 51.29L204.387 52.0709L205.011 51.29ZM208.091 55.25L207.163 55.6214L207.166 55.6298L207.17 55.6381L208.091 55.25ZM204.241 69.66L203.633 68.8666L203.624 68.8737L204.241 69.66ZM177.621 70.65L177.214 71.5631L177.221 71.5662L177.227 71.5691L177.621 70.65ZM165.411 62.4L166.084 61.6601L165.317 60.9625L164.648 61.7546L165.411 62.4ZM160.021 68.78L159.258 68.1347L158.634 68.873L159.35 69.5215L160.021 68.78ZM174.541 78.13L174.165 79.0566L174.173 79.0599L174.182 79.063L174.541 78.13ZM210.291 75.16L209.661 74.3839L209.655 74.3888L209.649 74.3938L210.291 75.16ZM215.791 68.23L214.892 67.7925L215.791 68.23ZM211.611 45.24L210.97 46.0071L210.977 46.0127L211.611 45.24ZM192.691 37.32L192.908 36.3438L192.901 36.3422L192.894 36.3407L192.691 37.32ZM182.241 34.57L181.888 35.5053L181.899 35.5095L181.91 35.5135L182.241 34.57ZM175.861 31.27L175.232 32.0472L175.244 32.0565L175.255 32.0654L175.861 31.27ZM172.671 27.2L173.6 26.8286L172.671 27.2ZM172.791 22.25C172.791 20.6339 173.127 19.1313 173.794 17.7299L171.989 16.8701C171.189 18.5487 170.791 20.3461 170.791 22.25H172.791ZM173.777 17.764C174.517 16.3512 175.526 15.1397 176.811 14.1249L175.572 12.5551C174.071 13.7403 172.879 15.1688 172.006 16.836L173.777 17.764ZM176.791 14.14C178.161 13.1127 179.786 12.2793 181.678 11.6487L181.045 9.75131C178.977 10.4407 177.155 11.3673 175.591 12.54L176.791 14.14ZM181.667 11.652C183.608 11.0283 185.776 10.71 188.181 10.71V8.70999C185.6 8.70999 183.222 9.05166 181.055 9.74797L181.667 11.652ZM188.181 10.71C192.028 10.71 195.687 11.3506 199.167 12.6287L199.856 10.7513C196.149 9.38936 192.255 8.70999 188.181 8.70999V10.71ZM199.173 12.6309C202.715 13.906 206.247 15.9697 209.769 18.8447L211.034 17.2953C207.369 14.3036 203.641 12.114 199.85 10.7491L199.173 12.6309ZM211.2 18.6721L216.26 11.9621L214.663 10.7579L209.603 17.4679L211.2 18.6721ZM216.084 10.5777C212.049 7.3647 207.849 4.96082 203.482 3.37973L202.801 5.26026C206.941 6.75917 210.953 9.04862 214.838 12.1423L216.084 10.5777ZM203.501 3.38707C199.181 1.71953 194.14 0.899996 188.401 0.899996V2.9C193.956 2.9 198.742 3.69379 202.781 5.25292L203.501 3.38707ZM188.401 0.899996C184.634 0.899996 181.145 1.46533 177.945 2.60825L178.618 4.49174C181.578 3.43466 184.836 2.9 188.401 2.9V0.899996ZM177.965 2.60131C174.777 3.66399 171.987 5.18902 169.609 7.18381L170.894 8.71619C173.062 6.89763 175.626 5.48933 178.598 4.49868L177.965 2.60131ZM169.624 7.17158C167.238 9.09511 165.384 11.4108 164.072 14.1131L165.871 14.9869C167.052 12.5559 168.718 10.4715 170.879 8.72841L169.624 7.17158ZM164.072 14.1131C162.754 16.8265 162.101 19.8009 162.101 23.02H164.101C164.101 20.0791 164.696 17.4068 165.871 14.9869L164.072 14.1131ZM162.101 23.02C162.101 26.35 162.631 29.2795 163.725 31.7808L165.558 30.9792C164.599 28.7872 164.101 26.1433 164.101 23.02H162.101ZM163.725 31.7808C164.819 34.2817 166.496 36.4586 168.734 38.3104L170.009 36.7696C167.993 35.1014 166.517 33.1716 165.558 30.9792L163.725 31.7808ZM168.734 38.3104C170.961 40.154 173.738 41.7067 177.041 42.9828L177.762 41.1172C174.611 39.9 172.035 38.446 170.009 36.7696L168.734 38.3104ZM177.048 42.9855C180.405 44.2535 184.304 45.3662 188.74 46.3273L189.163 44.3727C184.799 43.4271 180.998 42.3398 177.755 41.1145L177.048 42.9855ZM188.738 46.327C192.746 47.2015 195.997 48.1064 198.503 49.0374L199.2 47.1626C196.573 46.1869 193.223 45.2585 189.165 44.373L188.738 46.327ZM198.512 49.0406C201.094 49.9732 203.037 50.991 204.387 52.0709L205.636 50.5091C204.053 49.2424 201.888 48.1335 199.191 47.1594L198.512 49.0406ZM204.387 52.0709C205.744 53.1567 206.652 54.3431 207.163 55.6214L209.02 54.8786C208.358 53.2236 207.212 51.77 205.636 50.5091L204.387 52.0709ZM207.17 55.6381C207.695 56.8854 207.971 58.3623 207.971 60.09H209.971C209.971 58.1511 209.661 56.4013 209.013 54.8619L207.17 55.6381ZM207.971 60.09C207.971 63.7378 206.54 66.6351 203.633 68.8667L204.85 70.4533C208.249 67.8449 209.971 64.3622 209.971 60.09H207.971ZM203.624 68.8737C200.77 71.1157 196.868 72.29 191.811 72.29V74.29C197.168 74.29 201.553 73.0443 204.859 70.4463L203.624 68.8737ZM191.811 72.29C186.567 72.29 181.975 71.428 178.015 69.7309L177.227 71.5691C181.481 73.392 186.349 74.29 191.811 74.29V72.29ZM178.029 69.7369C174.037 67.9549 170.055 65.2699 166.084 61.6601L164.739 63.1399C168.835 66.8634 172.992 69.6785 177.214 71.5631L178.029 69.7369ZM164.648 61.7546L159.258 68.1347L160.785 69.4254L166.175 63.0453L164.648 61.7546ZM159.35 69.5215C164.045 73.7691 168.983 76.9536 174.165 79.0566L174.917 77.2034C169.98 75.1998 165.238 72.1509 160.692 68.0385L159.35 69.5215ZM174.182 79.063C179.443 81.0923 185.213 82.1 191.481 82.1V80.1C185.43 80.1 179.907 79.1277 174.901 77.197L174.182 79.063ZM191.481 82.1C195.385 82.1 199.008 81.5744 202.345 80.5129L201.738 78.6071C198.621 79.5989 195.205 80.1 191.481 80.1V82.1ZM202.345 80.5129C205.678 79.4523 208.548 77.9276 210.934 75.9262L209.649 74.3938C207.488 76.2057 204.858 77.6144 201.738 78.6071L202.345 80.5129ZM210.922 75.9361C213.382 73.9377 215.307 71.5122 216.691 68.6675L214.892 67.7925C213.636 70.3745 211.895 72.569 209.661 74.3839L210.922 75.9361ZM216.691 68.6675C218.083 65.8054 218.771 62.6472 218.771 59.21H216.771C216.771 62.3728 216.14 65.2279 214.892 67.7925L216.691 68.6675ZM218.771 59.21C218.771 53.0106 216.613 48.0545 212.246 44.4673L210.977 46.0127C214.823 49.1722 216.771 53.5294 216.771 59.21H218.771ZM212.253 44.4729C208.041 40.9499 201.552 38.2647 192.908 36.3438L192.474 38.2962C200.99 40.1886 207.116 42.7835 210.97 46.0071L212.253 44.4729ZM192.894 36.3407C188.665 35.4657 185.229 34.5597 182.573 33.6265L181.91 35.5135C184.681 36.487 188.211 37.4143 192.489 38.2993L192.894 36.3407ZM182.595 33.6347C179.932 32.627 177.903 31.568 176.467 30.4746L175.255 32.0654C176.9 33.3187 179.124 34.4597 181.888 35.5053L182.595 33.6347ZM176.491 30.4928C175.05 29.3267 174.109 28.1012 173.6 26.8286L171.743 27.5714C172.407 29.2322 173.593 30.72 175.232 32.0472L176.491 30.4928ZM173.6 26.8286C173.067 25.4974 172.791 23.9763 172.791 22.25H170.791C170.791 24.1904 171.102 25.9692 171.743 27.5714L173.6 26.8286ZM38.04 116.03V115.03H37.04V116.03H38.04ZM63.89 116.03V117.03H64.89V116.03H63.89ZM63.89 108H64.89V107H63.89V108ZM3.39 108V107H2.39V108H3.39ZM3.39 116.03H2.39V117.03H3.39V116.03ZM29.24 116.03H30.24V115.03H29.24V116.03ZM29.24 185H28.24V186H29.24V185ZM38.04 185V186H39.04V185H38.04ZM38.04 117.03H63.89V115.03H38.04V117.03ZM64.89 116.03V108H62.89V116.03H64.89ZM63.89 107H3.39V109H63.89V107ZM2.39 108V116.03H4.39V108H2.39ZM3.39 117.03H29.24V115.03H3.39V117.03ZM28.24 116.03V185H30.24V116.03H28.24ZM29.24 186H38.04V184H29.24V186ZM39.04 185V116.03H37.04V185H39.04ZM80.9881 108V107H79.9881V108H80.9881ZM80.9881 185H79.9881V186H80.9881V185ZM89.6781 185V186H90.6781V185H89.6781ZM89.6781 108H90.6781V107H89.6781V108ZM79.9881 108V185H81.9881V108H79.9881ZM80.9881 186H89.6781V184H80.9881V186ZM90.6781 185V108H88.6781V185H90.6781ZM89.6781 107H80.9881V109H89.6781V107ZM168.44 119L167.748 119.722L167.755 119.729L168.44 119ZM155.46 110.97L155.091 111.899L155.099 111.903L155.107 111.906L155.46 110.97ZM112.23 108V107H111.23V108H112.23ZM112.23 185H111.23V186H112.23V185ZM155.46 182.03L155.095 181.099L155.091 181.101L155.46 182.03ZM168.44 173.89L167.755 173.161L167.748 173.168L168.44 173.89ZM176.91 161.68L177.831 162.069L177.833 162.064L176.91 161.68ZM168.55 158.6L167.628 158.213L167.625 158.221L167.621 158.229L168.55 158.6ZM162.17 168.28L162.877 168.987L162.17 168.28ZM152.16 174.66L151.797 173.728L152.16 174.66ZM120.92 176.97H119.92V177.97H120.92V176.97ZM120.92 116.03V115.03H119.92V116.03H120.92ZM152.16 118.45L151.783 119.376L151.79 119.379L151.797 119.382L152.16 118.45ZM162.17 124.94L161.453 125.638L161.463 125.647L161.472 125.656L162.17 124.94ZM168.55 134.62L167.619 134.985L167.622 134.993L167.625 135.001L168.55 134.62ZM180.88 146.39C180.88 140.839 179.866 135.646 177.831 130.821L175.988 131.599C177.913 136.161 178.88 141.088 178.88 146.39H180.88ZM177.831 130.821C175.798 126.001 172.894 121.815 169.125 118.271L167.755 119.729C171.319 123.079 174.062 127.032 175.988 131.599L177.831 130.821ZM169.132 118.278C165.433 114.73 160.988 111.984 155.812 110.034L155.107 111.906C160.052 113.769 164.26 116.376 167.748 119.722L169.132 118.278ZM155.829 110.041C150.711 108.009 145.084 107 138.96 107V109C144.862 109 150.235 109.971 155.091 111.899L155.829 110.041ZM138.96 107H112.23V109H138.96V107ZM111.23 108V185H113.23V108H111.23ZM112.23 186H138.96V184H112.23V186ZM138.96 186C145.084 186 150.711 184.991 155.829 182.959L155.091 181.101C150.235 183.029 144.862 184 138.96 184V186ZM155.824 182.961C160.995 180.938 165.436 178.157 169.132 174.612L167.748 173.168C164.257 176.516 160.045 179.162 155.095 181.099L155.824 182.961ZM169.125 174.619C172.894 171.075 175.798 166.889 177.831 162.069L175.988 161.291C174.062 165.858 171.319 169.811 167.755 173.161L169.125 174.619ZM177.833 162.064C179.866 157.169 180.88 151.941 180.88 146.39H178.88C178.88 151.692 177.913 156.658 175.986 161.296L177.833 162.064ZM169.86 146.61C169.86 150.815 169.112 154.679 167.628 158.213L169.472 158.987C171.068 155.188 171.86 151.058 171.86 146.61H169.86ZM167.621 158.229C166.205 161.77 164.153 164.882 161.463 167.573L162.877 168.987C165.76 166.104 167.961 162.764 169.478 158.971L167.621 158.229ZM161.463 167.573C158.858 170.178 155.642 172.233 151.797 173.728L152.522 175.592C156.598 174.007 160.056 171.809 162.877 168.987L161.463 167.573ZM151.797 173.728C147.968 175.217 143.693 175.97 138.96 175.97V177.97C143.907 177.97 148.432 177.183 152.522 175.592L151.797 173.728ZM138.96 175.97H120.92V177.97H138.96V175.97ZM121.92 176.97V116.03H119.92V176.97H121.92ZM120.92 117.03H138.96V115.03H120.92V117.03ZM138.96 117.03C143.687 117.03 147.957 117.818 151.783 119.376L152.537 117.524C148.443 115.856 143.912 115.03 138.96 115.03V117.03ZM151.797 119.382C155.636 120.875 158.849 122.963 161.453 125.638L162.886 124.242C160.064 121.344 156.603 119.105 152.522 117.518L151.797 119.382ZM161.472 125.656C164.154 128.267 166.202 131.373 167.619 134.985L169.481 134.255C167.964 130.387 165.759 127.039 162.867 124.224L161.472 125.656ZM167.625 135.001C169.113 138.614 169.86 142.48 169.86 146.61H171.86C171.86 142.233 171.067 138.106 169.475 134.239L167.625 135.001ZM270.545 131.21L269.61 131.564L269.613 131.573L269.616 131.581L270.545 131.21ZM262.625 118.56L261.896 119.245L261.903 119.252L262.625 118.56ZM250.195 109.87L249.787 110.783L249.792 110.786L250.195 109.87ZM218.185 109.98L218.587 110.896L218.599 110.89L218.185 109.98ZM197.725 131.43L198.653 131.801L198.655 131.797L197.725 131.43ZM197.615 161.9L196.68 162.254L196.683 162.263L196.686 162.271L197.615 161.9ZM205.645 174.55L204.916 175.235L204.923 175.242L205.645 174.55ZM217.965 183.13L217.557 184.043L217.562 184.046L217.965 183.13ZM250.085 183.13L250.487 184.046L250.499 184.04L250.085 183.13ZM262.515 174.33L261.786 173.645L262.515 174.33ZM270.545 161.68L271.473 162.051L271.475 162.047L270.545 161.68ZM262.075 159.04L261.145 158.672L261.141 158.681L262.075 159.04ZM255.915 169.05L255.18 168.372L255.915 169.05ZM246.345 175.87L246.748 176.785L246.756 176.782L246.345 175.87ZM222.035 175.76L221.617 176.669L221.624 176.672L222.035 175.76ZM212.465 168.94L213.19 168.252L212.465 168.94ZM206.085 158.82L205.149 159.173L205.152 159.181L205.155 159.188L206.085 158.82ZM206.085 134.07L205.155 133.702L205.151 133.711L206.085 134.07ZM212.355 123.95L213.09 124.628L212.355 123.95ZM221.815 117.24L222.218 118.155L222.226 118.152L221.815 117.24ZM246.125 117.24L245.707 118.149L245.714 118.152L246.125 117.24ZM255.805 124.06L255.079 124.748L255.805 124.06ZM262.075 134.18L261.139 134.533L261.142 134.541L261.145 134.548L262.075 134.18ZM274.405 146.39C274.405 140.915 273.429 135.728 271.473 130.839L269.616 131.581C271.474 136.225 272.405 141.158 272.405 146.39H274.405ZM271.48 130.856C269.601 125.895 266.89 121.562 263.346 117.868L261.903 119.252C265.253 122.745 267.822 126.845 269.61 131.564L271.48 130.856ZM263.353 117.875C259.81 114.105 255.554 111.132 250.597 108.954L249.792 110.786C254.516 112.861 258.546 115.681 261.896 119.245L263.353 117.875ZM250.602 108.957C245.692 106.766 240.234 105.68 234.245 105.68V107.68C239.988 107.68 245.164 108.72 249.787 110.783L250.602 108.957ZM234.245 105.68C228.25 105.68 222.754 106.805 217.771 109.07L218.599 110.89C223.296 108.755 228.506 107.68 234.245 107.68V105.68ZM217.782 109.064C212.826 111.242 208.57 114.215 205.026 117.985L206.483 119.355C209.833 115.791 213.864 112.971 218.587 110.896L217.782 109.064ZM205.026 117.985C201.49 121.747 198.746 126.11 196.794 131.063L198.655 131.797C200.517 127.07 203.126 122.926 206.483 119.355L205.026 117.985ZM196.796 131.059C194.84 135.948 193.865 141.135 193.865 146.61H195.865C195.865 141.378 196.796 136.445 198.653 131.801L196.796 131.059ZM193.865 146.61C193.865 152.08 194.802 157.297 196.68 162.254L198.55 161.546C196.761 156.823 195.865 151.847 195.865 146.61H193.865ZM196.686 162.271C198.638 167.152 201.382 171.475 204.916 175.235L206.373 173.865C203.014 170.291 200.404 166.182 198.543 161.529L196.686 162.271ZM204.923 175.242C208.464 178.933 212.678 181.866 217.557 184.043L218.372 182.217C213.718 180.14 209.719 177.353 206.366 173.858L204.923 175.242ZM217.562 184.046C222.543 186.234 228.035 187.32 234.025 187.32V185.32C228.281 185.32 223.067 184.28 218.367 182.214L217.562 184.046ZM234.025 187.32C240.015 187.32 245.507 186.234 250.487 184.046L249.682 182.214C244.983 184.28 239.768 185.32 234.025 185.32V187.32ZM250.499 184.04C255.45 181.79 259.703 178.782 263.243 175.015L261.786 173.645C258.434 177.212 254.399 180.07 249.671 182.22L250.499 184.04ZM263.243 175.015C266.777 171.255 269.521 166.932 271.473 162.051L269.616 161.309C267.755 165.962 265.145 170.071 261.786 173.645L263.243 175.015ZM271.475 162.047C273.429 157.086 274.405 151.865 274.405 146.39H272.405C272.405 151.622 271.474 156.594 269.614 161.313L271.475 162.047ZM263.385 146.61C263.385 150.891 262.636 154.908 261.145 158.672L263.004 159.408C264.593 155.398 265.385 151.129 265.385 146.61H263.385ZM261.141 158.681C259.718 162.382 257.73 165.609 255.18 168.372L256.65 169.728C259.38 166.771 261.498 163.324 263.008 159.399L261.141 158.681ZM255.18 168.372C252.636 171.128 249.558 173.324 245.934 174.958L246.756 176.782C250.612 175.043 253.914 172.692 256.65 169.728L255.18 168.372ZM245.942 174.955C242.414 176.507 238.52 177.29 234.245 177.29V179.29C238.77 179.29 242.942 178.46 246.748 176.785L245.942 174.955ZM234.245 177.29C229.976 177.29 226.047 176.473 222.446 174.848L221.624 176.672C225.502 178.421 229.713 179.29 234.245 179.29V177.29ZM222.453 174.852C218.899 173.217 215.814 171.017 213.19 168.252L211.739 169.628C214.542 172.583 217.837 174.93 221.617 176.668L222.453 174.852ZM213.19 168.252C210.57 165.49 208.51 162.227 207.014 158.452L205.155 159.188C206.739 163.186 208.933 166.67 211.739 169.628L213.19 168.252ZM207.02 158.467C205.599 154.7 204.885 150.677 204.885 146.39H202.885C202.885 150.903 203.637 155.167 205.149 159.173L207.02 158.467ZM204.885 146.39C204.885 142.103 205.599 138.119 207.018 134.429L205.151 133.711C203.637 137.647 202.885 141.877 202.885 146.39H204.885ZM207.014 134.438C208.512 130.658 210.539 127.391 213.09 124.628L211.62 123.272C208.89 126.229 206.737 129.709 205.155 133.702L207.014 134.438ZM213.09 124.628C215.634 121.872 218.673 119.715 222.218 118.155L221.412 116.325C217.623 117.992 214.356 120.308 211.62 123.272L213.09 124.628ZM222.226 118.152C225.827 116.527 229.756 115.71 234.025 115.71V113.71C229.493 113.71 225.282 114.579 221.404 116.328L222.226 118.152ZM234.025 115.71C238.294 115.71 242.183 116.527 245.707 118.148L246.543 116.332C242.733 114.579 238.556 113.71 234.025 113.71V115.71ZM245.714 118.152C249.34 119.787 252.459 121.986 255.079 124.748L256.53 123.372C253.724 120.414 250.389 118.066 246.536 116.328L245.714 118.152ZM255.079 124.748C257.696 127.506 259.717 130.764 261.139 134.533L263.01 133.827C261.499 129.822 259.34 126.334 256.53 123.372L255.079 124.748ZM261.145 134.548C262.636 138.312 263.385 142.329 263.385 146.61H265.385C265.385 142.091 264.593 137.822 263.004 133.812L261.145 134.548Z" fill="white"/>
</svg>
